<svg width="161" height="160" viewBox="0 0 161 160" fill="none" xmlns="http://www.w3.org/2000/svg">
<g clip-path="url(#clip0_407_8453)">
<path d="M78.6013 137.121C73.5217 137.059 68.4695 139.476 65.328 143.472C65.0681 143.802 64.8071 144.212 64.933 144.618C65.0475 144.962 65.4024 145.164 65.7344 145.306C67.7265 146.163 69.9234 146.408 72.0883 146.533C77.1782 146.827 82.2849 146.515 87.3015 145.603C88.8104 145.329 91.4642 144.872 90.5552 142.657C89.8534 140.95 87.2477 139.605 85.6827 138.839C83.4778 137.75 81.0599 137.164 78.6013 137.121Z" fill="#F2DFE7"/>
<path d="M35.4238 108.387C36.0014 110.57 36.6499 112.875 38.2992 114.416C40.3282 116.312 43.3397 116.581 46.1099 116.735C67.4516 117.921 88.8172 118.152 110.208 117.429C112.026 117.367 113.934 117.274 115.5 116.345C117.337 115.256 118.372 113.219 119.16 111.235C121.266 105.97 122.341 100.361 123.392 94.7888C126.87 76.2932 130.18 57.6777 130.649 38.8642C130.714 36.2933 130.535 33.3138 128.463 31.7891C127.282 30.9192 125.742 30.7475 124.282 30.6101C104.23 28.7241 84.0981 27.8592 63.9594 28.0186C55.6671 28.085 47.3543 28.3277 39.1261 29.422C35.0509 29.9634 30.8728 30.6067 26.9291 31.7948C24.6416 32.4816 22.0921 33.6263 21.3681 36.1205C20.6819 38.4888 21.3155 41.2485 21.5889 43.6351C22.0693 47.8321 22.658 52.0163 23.3548 56.1874C24.7274 64.4907 26.4739 72.7288 28.4102 80.919C30.3466 89.109 32.482 97.2749 34.6357 105.424C34.8988 106.412 35.1615 107.399 35.4238 108.387Z" fill="#F2DFE7"/>
<path d="M77.4932 139.36C77.406 139.36 77.3207 139.334 77.2479 139.284C77.1751 139.235 77.118 139.165 77.0835 139.083C75.7974 136.03 74.3461 131.07 74.1976 127.407C74.0603 124.017 74.7168 120.099 75.9537 116.927C75.9981 116.813 76.0844 116.724 76.1936 116.676C76.3028 116.629 76.4259 116.628 76.5359 116.673C76.646 116.718 76.7337 116.807 76.7801 116.919C76.8265 117.031 76.8276 117.157 76.7832 117.27C75.5909 120.328 74.9579 124.105 75.0896 127.373C75.2281 130.761 76.609 135.644 77.9029 138.718C77.9323 138.788 77.9444 138.863 77.938 138.939C77.9317 139.014 77.9071 139.088 77.8665 139.151C77.8258 139.215 77.7705 139.266 77.7053 139.303C77.6401 139.338 77.5673 139.358 77.4932 139.358V139.36Z" fill="#181E32"/>
<path d="M74.7967 144.8C72.9396 144.801 71.0907 144.557 69.2988 144.078C69.1864 144.043 69.0923 143.965 69.0359 143.864C68.9796 143.762 68.9655 143.643 68.9967 143.53C69.0277 143.418 69.1017 143.323 69.2028 143.263C69.304 143.204 69.4246 143.186 69.5395 143.211C72.1062 143.898 74.7863 144.074 77.423 143.729C77.5429 143.714 77.6644 143.745 77.7607 143.817C77.857 143.889 77.9202 143.997 77.9364 144.115C77.9525 144.233 77.9204 144.352 77.8471 144.447C77.7736 144.542 77.665 144.604 77.5451 144.62C76.634 144.74 75.7158 144.8 74.7967 144.8Z" fill="white"/>
<path d="M81.3712 144.72C81.2493 144.723 81.132 144.676 81.0443 144.589C80.9554 144.5 80.9041 144.379 80.9007 144.251C80.8962 144.122 80.9406 143.996 81.0226 143.903C81.1058 143.809 81.2197 143.753 81.3416 143.75C81.7973 143.718 83.0813 143.616 83.4914 143.527C83.6076 143.506 83.7261 143.534 83.8229 143.605C83.9197 143.676 83.9881 143.785 84.0109 143.907C84.0348 144.03 84.0132 144.157 83.9505 144.264C83.8879 144.369 83.7887 144.446 83.6748 144.476C83.1189 144.597 81.4703 144.719 81.3963 144.719L81.3712 144.72Z" fill="white"/>
<path d="M33.0384 110.96C32.2483 110.96 31.4136 110.702 31.1003 109.683C30.787 108.664 30.9357 107.268 33.4364 106.446C34.3831 106.135 35.7484 105.789 35.8055 105.775C35.923 105.744 36.0477 105.762 36.1523 105.823C36.2568 105.886 36.3327 105.987 36.363 106.106C36.3933 106.225 36.3756 106.351 36.314 106.455C36.2524 106.562 36.1516 106.638 36.0342 106.669C36.0194 106.669 34.6415 107.022 33.7256 107.324C31.5531 108.036 31.8641 109.034 31.9796 109.41C32.1157 109.851 32.501 110.3 34.2848 109.842C35.3276 109.575 36.3075 109.15 36.5179 109.015C36.6192 108.949 36.7417 108.928 36.859 108.953C36.9763 108.978 37.0791 109.05 37.1451 109.15C37.211 109.252 37.235 109.375 37.2118 109.494C37.1886 109.613 37.12 109.718 37.021 109.786C36.6665 110.016 35.5483 110.47 34.5112 110.736C34.0314 110.872 33.5366 110.947 33.0384 110.96Z" fill="#181E32"/>
<path d="M49.8459 100.85C49.7313 99.2295 49.6924 97.531 50.374 96.0591C51.7945 92.9894 55.6516 92.0646 59.007 91.6217C72.0786 89.9002 85.3191 89.8865 98.3935 91.5793C99.6903 91.7476 101.036 91.9513 102.112 92.693C104.245 94.1649 104.575 97.1567 104.488 99.7411C104.324 104.568 103.415 109.34 101.792 113.89C101.592 114.452 101.359 115.035 100.891 115.407C100.238 115.919 99.3214 115.864 98.4954 115.798C90.2473 115.084 81.982 114.668 73.699 114.554C69.5352 114.492 65.373 114.507 61.2122 114.597C59.1307 114.642 57.0504 114.712 54.97 114.787C53.7752 114.832 52.6308 114.823 52.011 113.643C51.1163 111.948 50.9651 109.583 50.6558 107.718C50.2732 105.444 50.0032 103.155 49.8459 100.85Z" fill="#181E32"/>
<path d="M99.253 116.32C98.9428 116.32 98.6486 116.295 98.3979 116.273C90.261 115.569 81.9352 115.151 73.6523 115.032C69.5163 114.971 65.3219 114.986 61.187 115.075C59.3841 115.114 57.4094 115.175 54.9561 115.265C53.8595 115.306 52.3575 115.361 51.5768 113.883C50.8373 112.484 50.5843 110.673 50.3611 109.076C50.2993 108.638 50.2409 108.223 50.1756 107.828C49.7956 105.542 49.5231 103.223 49.3663 100.92C49.2518 99.2543 49.2015 97.4963 49.9387 95.912C51.4727 92.5972 55.548 91.6644 58.9204 91.2255C72.0225 89.4995 85.2939 89.4847 98.399 91.1821C99.8197 91.3661 101.189 91.5959 102.315 92.372C104.172 93.6522 105.013 96.0823 104.888 99.8018C104.725 104.67 103.807 109.482 102.168 114.07C101.939 114.701 101.675 115.354 101.118 115.792C100.56 116.23 99.8735 116.32 99.253 116.32ZM68.6509 114.086C70.3298 114.086 72.0011 114.098 73.6649 114.123C81.9695 114.237 90.3182 114.661 98.4769 115.368C99.2782 115.436 100.046 115.466 100.549 115.073C100.914 114.786 101.113 114.29 101.301 113.763C102.909 109.264 103.809 104.544 103.968 99.7709C104.083 96.3875 103.371 94.2134 101.793 93.1253C100.835 92.4634 99.6354 92.2645 98.28 92.0885C85.2538 90.4025 72.0625 90.4174 59.0395 92.1319C55.896 92.5457 52.1149 93.3893 50.7686 96.3018C50.1264 97.6894 50.1756 99.316 50.2821 100.863C50.4378 103.136 50.7068 105.435 51.0834 107.684C51.151 108.09 51.2105 108.511 51.2723 108.955C51.4852 110.478 51.7302 112.205 52.3919 113.462C52.8681 114.364 53.7049 114.402 54.9264 114.357C57.3796 114.266 59.3646 114.205 61.1722 114.166C63.6483 114.108 66.1519 114.086 68.6509 114.086Z" fill="#181E32"/>
<path d="M61.6418 114.8C61.5265 114.8 61.4154 114.758 61.3304 114.68C61.2454 114.602 61.1927 114.496 61.183 114.382C61.1474 113.982 61.1176 113.613 61.0901 113.267C60.9341 111.333 60.8389 110.164 60.1988 108.083C59.8547 106.953 58.4897 106.999 57.0053 107.156C56.7071 107.187 56.4502 107.214 56.2391 107.214C56.1174 107.214 56.0007 107.166 55.9146 107.08C55.8286 106.995 55.7803 106.878 55.7803 106.757C55.7803 106.636 55.8286 106.52 55.9146 106.434C56.0007 106.348 56.1174 106.3 56.2391 106.3C56.402 106.3 56.6371 106.275 56.9101 106.247C58.157 106.115 60.4787 105.871 61.0775 107.816C61.7473 109.986 61.8494 111.265 62.0054 113.194C62.0341 113.537 62.0628 113.905 62.0983 114.303C62.1039 114.363 62.0975 114.423 62.0797 114.48C62.0618 114.537 62.0326 114.591 61.9941 114.637C61.9555 114.684 61.9083 114.721 61.8548 114.75C61.8015 114.777 61.7431 114.794 61.6831 114.8H61.6418Z" fill="white"/>
<path d="M93.2717 115.44C93.2377 115.44 93.2047 115.437 93.1718 115.43C93.0548 115.402 92.9538 115.329 92.8902 115.227C92.8266 115.124 92.805 115.001 92.8312 114.883L94.1222 109.032C94.3345 108.07 94.5979 106.875 95.3712 105.997C96.183 105.082 97.7284 104.654 98.7344 105.484C98.8275 105.56 98.8865 105.671 98.8979 105.793C98.9104 105.913 98.8741 106.034 98.798 106.128C98.7208 106.222 98.6106 106.281 98.4914 106.293C98.3711 106.305 98.2518 106.269 98.1587 106.192C97.5649 105.702 96.5691 106.017 96.049 106.606C95.4291 107.307 95.2043 108.323 95.0056 109.23L93.7157 115.082C93.693 115.184 93.6362 115.274 93.5556 115.339C93.475 115.405 93.375 115.44 93.2717 115.44Z" fill="white"/>
<path d="M71.9493 101.52C71.6972 101.515 71.4506 101.445 71.2343 101.315C71.011 101.184 70.8166 101.009 70.6633 100.801C67.5421 96.6611 66.1969 93.1129 66.0199 88.5557C66.0175 88.4951 66.027 88.4357 66.0479 88.3785C66.0687 88.3226 66.1003 88.2711 66.1411 88.2266C66.1818 88.1831 66.2309 88.1477 66.2855 88.1226C66.34 88.0974 66.3989 88.0826 66.4589 88.0803C66.519 88.078 66.5788 88.0872 66.6351 88.1089C66.6914 88.1294 66.743 88.1614 66.7871 88.2014C66.8312 88.2426 66.8668 88.2917 66.892 88.3465C66.917 88.4014 66.9311 88.4597 66.9335 88.5202C67.1026 92.8741 68.3952 96.2725 71.3942 100.25C71.4731 100.359 71.5739 100.452 71.69 100.52C71.9687 100.678 72.1845 100.651 72.6562 100.077C74.3179 98.0506 75.2132 95.3424 76.0024 92.9518L76.1303 92.5667C76.1805 92.4158 76.2781 92.2855 76.4081 92.1953C76.5383 92.1061 76.6942 92.0604 76.8525 92.0661C77.0108 92.0719 77.1629 92.129 77.2861 92.2284C77.4094 92.3278 77.4971 92.4638 77.5361 92.6181C78.2796 95.5446 79.5724 98.3557 81.0839 100.33C81.1033 100.357 81.1296 100.378 81.1593 100.393C81.189 100.409 81.2209 100.417 81.2552 100.42C81.2872 100.42 81.3203 100.414 81.35 100.401C81.3808 100.389 81.4071 100.369 81.4299 100.345C85.4191 95.8669 86.5862 91.8307 86.8638 89.2345C86.8695 89.1739 86.8877 89.1156 86.9163 89.063C86.946 89.0093 86.9848 88.9636 87.0316 88.9248C87.0785 88.8871 87.1321 88.8585 87.1904 88.8413C87.2475 88.8242 87.3092 88.8196 87.3685 88.8254C87.4291 88.8322 87.4862 88.8505 87.5399 88.8791C87.5924 88.9076 87.6392 88.9465 87.6769 88.9933C87.7157 89.0413 87.7431 89.095 87.7603 89.1522C87.7774 89.2105 87.7831 89.271 87.7774 89.3316C87.3583 93.2466 85.402 97.2644 82.1174 100.953C82.0044 101.078 81.8662 101.176 81.712 101.241C81.5578 101.307 81.3911 101.337 81.2232 101.331C81.0553 101.325 80.892 101.281 80.7424 101.205C80.5939 101.127 80.4638 101.018 80.3615 100.886C78.8769 98.9511 77.6024 96.26 76.8121 93.4306C76.0126 95.8486 75.091 98.5546 73.3665 100.656C73.1393 100.921 72.6482 101.52 71.9493 101.52Z" fill="white"/>
<path d="M76.8902 110C76.5388 110.003 76.1922 109.916 75.8827 109.748C75.2502 109.399 74.8281 108.709 74.752 107.903C74.6759 107.097 74.9725 106.338 75.5323 105.875C75.552 105.859 75.5729 105.844 75.595 105.831C75.9755 105.621 76.4033 105.514 76.8366 105.52C77.27 105.528 77.6942 105.649 78.068 105.871C78.4298 106.07 78.7339 106.36 78.9501 106.716C79.1662 107.071 79.2866 107.477 79.2994 107.894C79.3005 107.913 79.3005 107.933 79.2994 107.953C79.2177 108.679 78.7464 109.336 78.0377 109.709C77.6837 109.898 77.2902 109.998 76.8902 110ZM76.0663 106.601C75.9077 106.757 75.7873 106.947 75.7149 107.158C75.6426 107.37 75.6203 107.596 75.6498 107.817C75.6969 108.322 75.9465 108.746 76.3215 108.952C76.6966 109.159 77.1779 109.139 77.6224 108.906C77.8233 108.81 77.9992 108.667 78.1355 108.49C78.2717 108.313 78.3644 108.104 78.406 107.884C78.3889 107.63 78.308 107.383 78.1707 107.17C78.0336 106.956 77.8448 106.782 77.6224 106.663C77.389 106.522 77.1241 106.441 76.8522 106.431C76.5803 106.419 76.31 106.478 76.0663 106.601Z" fill="white"/>
<path d="M52.4234 55.4571C49.9044 53.0534 44.8664 54.9764 44.5916 58.4538C44.3168 61.9311 49.0033 64.6119 51.8681 62.6213C52.475 62.199 53.036 61.6095 53.7723 61.5511C54.7512 61.4733 55.5482 62.4107 55.7726 63.3653C55.997 64.32 55.8298 65.3192 55.8756 66.3002C56.0165 69.3712 58.2801 72.0405 61.0087 73.4598C63.7372 74.8792 66.8802 75.2512 69.9511 75.4389C74.2179 75.698 78.4979 75.6445 82.7574 75.2786C85.7023 75.0245 88.7114 74.5919 91.3071 73.1851C93.9028 71.7784 96.0245 70.3338 96.1344 67.3807C96.1745 66.2853 95.9432 65.1773 96.1436 64.1002C96.344 63.0231 97.1924 61.9311 98.287 61.9895C98.8091 62.0181 99.2775 62.2986 99.7572 62.5057C101.763 63.3711 104.327 62.8491 105.719 61.1642C107.112 59.4793 107.093 56.7517 105.581 55.179C104.068 53.6062 101.209 53.5513 99.7274 55.1572C99.3221 55.5968 98.832 56.1954 98.2698 55.9928C97.7649 55.8108 97.6974 55.1366 97.7168 54.5998C97.7901 52.6024 97.876 49.449 97.9458 47.4562C97.9916 46.2348 98.0328 44.9849 97.6642 43.8197C97.2886 42.6373 96.5191 41.6254 95.7257 40.6697C90.2892 34.1018 85.6806 26.0184 77.1761 25.3866C71.2301 24.9459 62.0002 30.0624 58.0809 34.5997C56.534 36.3922 55.0879 38.5372 54.8234 40.9455C54.5944 43.0287 55.034 45.1589 55.0524 47.241C55.0753 49.1868 54.8737 51.127 54.7295 53.0637C54.6722 53.8283 54.8554 55.3198 54.4066 55.9711C53.8558 56.786 52.9021 55.9138 52.4234 55.4571Z" fill="#1B5EC9"/>
<path d="M49.9344 61.3483C49.9115 61.35 49.8885 61.35 49.8656 61.3483C48.9632 61.2093 48.1816 60.514 47.8195 59.5338C47.4574 58.5535 47.5939 57.5032 48.1849 56.7941C48.2632 56.7046 48.3726 56.6497 48.4899 56.6412C48.6074 56.6327 48.7233 56.6712 48.8132 56.7485C48.9031 56.8258 48.9597 56.9359 48.9711 57.0552C48.9825 57.1745 48.9478 57.2937 48.8741 57.3872C48.4974 57.8469 48.4173 58.5363 48.6643 59.2097C48.9114 59.8831 49.4235 60.3509 50.001 60.4394C50.1206 60.4484 50.232 60.5054 50.3102 60.598C50.3886 60.6905 50.4278 60.8111 50.4189 60.9329C50.4101 61.0548 50.3541 61.1682 50.2632 61.248C50.1724 61.3279 50.0541 61.3677 49.9344 61.3588V61.3483Z" fill="#181E32"/>
<path d="M103.028 61.3599C102.924 61.36 102.823 61.3223 102.742 61.2532C102.662 61.184 102.607 61.0878 102.588 60.9813C102.569 60.8749 102.585 60.7646 102.636 60.6699C102.687 60.5754 102.768 60.502 102.866 60.4629C103.533 60.196 104.052 59.1273 104 58.1293C103.976 57.6651 103.803 56.8412 102.912 56.5929C102.856 56.577 102.802 56.5497 102.755 56.5126C102.709 56.4754 102.67 56.4291 102.64 56.3762C102.61 56.3234 102.591 56.265 102.584 56.2045C102.576 56.1441 102.58 56.0826 102.596 56.0237C102.611 55.9648 102.637 55.9097 102.673 55.8613C102.709 55.8129 102.754 55.7724 102.805 55.742C102.856 55.7115 102.913 55.6917 102.971 55.6838C103.029 55.676 103.089 55.68 103.145 55.6959C104.179 55.9849 104.834 56.8761 104.896 58.0794C104.96 59.3153 104.335 60.8644 103.19 61.3286C103.139 61.3493 103.084 61.3598 103.028 61.3599Z" fill="#181E32"/>
<path d="M76.8365 67.9998C75.3161 68.0098 73.8257 67.5683 72.5463 66.7289C72.4449 66.661 72.374 66.5545 72.3493 66.4332C72.3248 66.3118 72.3483 66.1854 72.4148 66.0818C72.4814 65.9782 72.5855 65.9058 72.7043 65.8807C72.8231 65.8555 72.9467 65.8795 73.0481 65.9475C75.291 67.4508 78.4209 67.4426 80.654 65.9288C80.7043 65.8919 80.7615 65.8656 80.8209 65.8516C80.8815 65.8377 80.9433 65.8362 81.0038 65.8474C81.0644 65.8586 81.1227 65.8822 81.1742 65.9169C81.2256 65.9515 81.2702 65.9963 81.3034 66.0488C81.3376 66.1013 81.3616 66.1603 81.3719 66.2222C81.3834 66.2841 81.3822 66.3477 81.3697 66.4091C81.3559 66.4706 81.3296 66.5286 81.2942 66.5798C81.2588 66.6309 81.213 66.6742 81.1593 66.7067C79.8735 67.5606 78.3704 68.0102 76.8365 67.9998Z" fill="#181E32"/>
<path d="M76.7951 63.1195C76.2699 63.1195 75.7436 62.8763 75.3228 62.6808C74.8755 62.4739 74.3137 62.3682 74.1325 62.6217C74.0618 62.72 73.9549 62.7864 73.8348 62.8065C73.7149 62.8265 73.5917 62.7984 73.4926 62.7285C73.3934 62.6586 73.3264 62.5524 73.3062 62.4335C73.286 62.3145 73.3142 62.1926 73.3848 62.0943C73.8217 61.4862 74.7116 61.3953 75.7069 61.8556C76.1988 62.0829 76.7515 62.3398 77.0829 62.1352C77.1543 62.0845 77.221 62.0279 77.2825 61.9658C77.4088 61.8334 77.555 61.7211 77.7159 61.6328C78.2698 61.3452 78.8924 61.5419 79.3935 61.6987C79.8946 61.8556 80.1194 61.9033 80.1962 61.7874C80.2091 61.768 80.217 61.7456 80.2189 61.7224C80.221 61.6991 80.2171 61.6758 80.2077 61.6544C80.1368 61.464 79.9948 61.3082 79.8109 61.2191C79.634 61.1427 79.4516 61.0796 79.2651 61.0304C78.9247 60.9482 78.5999 60.8124 78.303 60.628C77.513 60.087 77.3111 59.0982 77.2171 58.2014C76.8421 54.5938 76.8662 53.0673 77.3536 49.603C77.3604 49.5427 77.3795 49.4844 77.4095 49.4315C77.4396 49.3786 77.48 49.3322 77.5284 49.2951C77.5768 49.258 77.6322 49.2308 77.6914 49.2152C77.7506 49.1996 77.8122 49.1959 77.8729 49.2044C77.9336 49.2128 77.9918 49.2331 78.0444 49.2643C78.097 49.2954 78.1427 49.3365 78.179 49.3855C78.2152 49.4344 78.2411 49.49 78.2553 49.549C78.2695 49.6081 78.2717 49.6692 78.2617 49.7291C77.787 53.1037 77.7641 54.5915 78.1299 58.1082C78.2056 58.8333 78.342 59.5494 78.8248 59.8802C79.0424 60.0073 79.2783 60.1012 79.5243 60.1586C79.76 60.22 79.9902 60.3009 80.2123 60.4007C80.4234 60.5011 80.6108 60.6438 80.7633 60.82C80.9158 60.9961 81.0305 61.2016 81.0981 61.4237C81.1417 61.5718 81.1509 61.7273 81.1268 61.8795C81.1027 62.0316 81.0454 62.1767 80.9582 62.3045C80.4806 62.9979 79.6974 62.7501 79.1241 62.5705C78.7491 62.4568 78.3627 62.3318 78.1459 62.4432C78.065 62.4947 77.9906 62.5557 77.9246 62.6251C77.82 62.7309 77.7047 62.8257 77.5806 62.9081C77.3452 63.0531 77.0722 63.1265 76.7951 63.1195Z" fill="#181E32"/>
<path d="M66.4828 59.76C65.4575 59.76 64.4186 59.6971 63.3706 59.6227C62.3931 59.5517 61.3793 59.4224 60.6821 58.6922C60.2503 58.2425 60.0453 57.6554 59.8846 57.09C59.6021 56.0748 59.2011 50.3605 59.3219 49.7802C59.6021 48.384 60.8188 47.5565 62.9388 47.3196C65.6005 47.0233 68.283 46.9623 70.9553 47.1376C71.5841 47.1789 72.2414 47.2521 72.778 47.6641C73.6221 48.3176 73.7132 49.4644 73.6984 50.3891C73.6605 52.7638 73.3296 55.1245 72.713 57.4173C72.6185 57.7732 72.5125 58.1166 72.2744 58.4187C71.9327 58.8593 71.4007 59.0596 70.9325 59.1981C69.4766 59.625 67.9922 59.76 66.4828 59.76ZM67.9808 47.9525C66.3306 47.9524 64.6815 48.0437 63.0413 48.226C61.3325 48.416 60.4132 48.9825 60.2173 49.9576C60.1512 50.4154 60.5021 55.894 60.7652 56.8405C60.9099 57.3635 61.0637 57.7709 61.3348 58.0582C61.8099 58.5538 62.6312 58.651 63.4321 58.7094C65.9383 58.8891 68.375 58.9955 70.6693 58.3169C71.0111 58.2139 71.3642 58.088 71.5533 57.8465C71.6873 57.6426 71.7803 57.4144 71.8267 57.1747C72.4231 54.955 72.7433 52.6696 72.7802 50.3708C72.7928 49.6601 72.7381 48.7914 72.2106 48.3863C71.8826 48.1322 71.3984 48.0818 70.8903 48.0429C69.9266 47.9834 68.9568 47.9532 67.9808 47.9525Z" fill="white"/>
<path d="M89.4379 59.36C87.0418 59.36 84.081 59.1533 84.0356 59.1499C83.0151 59.071 81.8811 58.8734 81.2789 58.0077C80.8991 57.464 80.8582 56.8221 80.8492 56.2121C80.839 55.5656 80.7823 54.8598 80.7222 54.1128C80.6156 52.7901 80.505 51.4218 80.6484 50.2293C80.7539 49.3487 80.9954 48.275 81.931 47.7884C82.4435 47.5223 83.0366 47.5212 83.4687 47.52C85.08 47.52 86.7152 47.5634 88.3266 47.6628C88.5897 47.6788 88.8573 47.6925 89.1261 47.7062C90.1886 47.7587 91.2806 47.8136 92.3228 48.0489C93.3842 48.2853 93.9784 48.861 94.0895 49.7622C94.238 50.9615 94.2879 55.6901 93.5588 57.7153C93.3082 58.3067 92.8693 58.7969 92.3114 59.1076C91.9055 59.2972 90.7556 59.36 89.4379 59.36ZM83.4709 48.4372C83.0298 48.4372 82.6408 48.4509 82.346 48.6051C81.7926 48.8918 81.6327 49.6445 81.5522 50.3424C81.4196 51.4446 81.5261 52.7661 81.6293 54.0442C81.6906 54.8061 81.7427 55.5291 81.7586 56.2019C81.7654 56.6896 81.7915 57.1544 82.0228 57.4868C82.4084 58.0374 83.2929 58.1721 84.1071 58.2384C86.8524 58.4497 91.3385 58.5605 91.9123 58.2807C92.2581 58.0741 92.5348 57.7672 92.706 57.4C93.3751 55.5394 93.3275 50.9797 93.1891 49.8718C93.1483 49.5394 92.9907 49.1339 92.1266 48.9409C91.165 48.7262 90.1058 48.6725 89.0819 48.6222C88.8086 48.6085 88.5387 48.5948 88.2722 48.5777C86.6789 48.4806 85.063 48.4338 83.4709 48.4372Z" fill="white"/>
<path d="M81.9624 50.7154C81.8995 50.7155 81.8376 50.7026 81.7792 50.6773C81.722 50.6521 81.6693 50.6152 81.6258 50.5687C81.0282 49.9215 80.3081 49.3997 79.507 49.0338C78.7059 48.6677 77.8401 48.465 76.9598 48.4371C76.0797 48.4093 75.2027 48.557 74.3801 48.8716C73.5575 49.1862 72.8056 49.6614 72.1683 50.2696C72.1254 50.3142 72.074 50.3497 72.0171 50.374C71.9603 50.3982 71.8991 50.4107 71.8373 50.4106C71.7754 50.4105 71.7143 50.3979 71.6575 50.3736C71.6006 50.3492 71.5493 50.3135 71.5066 50.2688C71.4639 50.224 71.4307 50.1711 71.4091 50.1132C71.3873 50.0552 71.3776 49.9936 71.3803 49.9317C71.3831 49.8699 71.3983 49.8093 71.4251 49.7535C71.4519 49.6978 71.4898 49.6479 71.5363 49.6072C72.2618 48.9154 73.1175 48.3749 74.0537 48.0172C74.9899 47.6597 75.9877 47.4919 76.9893 47.5239C77.9908 47.556 78.9759 47.787 79.8874 48.2037C80.7992 48.6204 81.619 49.2143 82.2979 49.951C82.3586 50.0165 82.3986 50.0982 82.4135 50.186C82.4284 50.2738 82.417 50.3641 82.3815 50.4455C82.3448 50.5271 82.2864 50.5965 82.212 50.6453C82.1376 50.694 82.0506 50.7199 81.9613 50.72L81.9624 50.7154Z" fill="white"/>
<path d="M103.78 38.6793C103.053 34.1044 101.584 30.5909 99.4613 25.777C97.3388 20.963 93.3044 16.8433 88.242 15.3885C87.4497 15.1583 86.6369 15.0051 85.8138 14.931C85.1418 14.1453 84.3255 13.4716 83.5173 12.814C85.5779 9.03971 85.1566 4.04622 82.4869 0.67338C81.5436 -0.518379 80.1681 -1.57175 78.6546 -1.42649C76.8698 -1.25379 75.6208 0.580739 75.48 2.36495C75.4273 3.22834 75.5226 4.09425 75.7616 4.92574C75.931 5.55708 76.5264 6.50065 76.4565 7.13656C75.828 6.74998 75.2636 6.13923 74.6454 5.70119C73.9952 5.23821 73.3157 4.818 72.611 4.44309C71.214 3.6999 69.7263 3.14119 68.1851 2.78126C66.5045 2.39011 64.7014 2.24485 63.0826 2.84188C61.4638 3.4389 60.0855 4.91774 60.0236 6.64019C59.9939 7.49798 60.2824 8.34204 60.6991 9.09347C62.0225 11.4758 64.5102 12.9352 66.8812 14.2803C65.0128 14.3512 63.18 14.8116 61.5005 15.6321C60.8949 15.9284 60.2927 16.2875 59.9046 16.8388C59.015 18.0969 59.1101 19.8605 60.2148 20.8269C55.3562 24.9855 51.8059 30.4599 49.9927 36.5897C48.6658 41.1246 48.3624 46.1181 50.1323 50.4985C50.4666 51.3277 50.9257 52.1821 51.7294 52.5767C53.2634 53.3304 54.9795 52.0346 56.1679 50.8062C59.4049 47.4601 62.4076 43.8955 65.1548 40.1376C65.2475 41.4414 66.643 42.21 67.9413 42.3667C72.7725 42.9465 81.373 38.1223 85.9523 31.4121C87.0284 33.8814 96.8385 52.0494 100.606 51.0338C104.507 49.9873 104.39 42.5211 103.78 38.6793Z" fill="#FF6800"/>
<path d="M56.907 31.84C56.4369 31.84 56.0751 31.7245 55.8078 31.5005C55.4391 31.1898 55.3078 30.7151 55.4172 30.0903C55.6477 28.7471 56.96 27.5818 58.1064 26.9385C58.2133 26.8788 58.3396 26.8641 58.4574 26.8977C58.5751 26.9313 58.6747 27.0104 58.7343 27.1176C58.7939 27.2247 58.8085 27.3513 58.775 27.4693C58.7416 27.5874 58.6627 27.6873 58.5558 27.747C57.3667 28.4145 56.4703 29.4216 56.3252 30.252C56.2756 30.5338 56.301 30.714 56.4012 30.796C56.5014 30.878 56.9934 31.1286 58.762 30.4888C58.877 30.4471 59.0038 30.4529 59.1146 30.505C59.2253 30.5571 59.3109 30.6511 59.3525 30.7665C59.394 30.8818 59.3882 31.0089 59.3362 31.1199C59.2842 31.231 59.1904 31.3167 59.0754 31.3584C58.1825 31.6829 57.4681 31.84 56.907 31.84Z" fill="#181E32"/>
<path d="M68.0795 36.4C67.9012 36.3992 67.7252 36.3606 67.5631 36.2867C67.4387 36.2326 67.3272 36.1533 67.2354 36.0538C67.1438 35.9542 67.074 35.8368 67.0307 35.7089C66.8106 35.045 67.3727 34.5012 67.5802 34.2972C67.6226 34.254 67.6732 34.2195 67.7292 34.196C67.7851 34.1724 67.8453 34.1601 67.9061 34.16C67.9669 34.1599 68.0272 34.1718 68.0832 34.1952C68.1393 34.2185 68.1901 34.2528 68.2326 34.2959C68.2753 34.339 68.3087 34.3903 68.3311 34.4463C68.3535 34.5025 68.3643 34.5626 68.363 34.623C68.3617 34.6835 68.3482 34.7429 68.3235 34.7981C68.2986 34.8533 68.2629 34.9029 68.2186 34.9442C67.8766 35.2841 67.8903 35.4053 67.8971 35.4257C67.9077 35.4433 67.9242 35.4566 67.9438 35.4631C68.0286 35.496 68.1225 35.496 68.2072 35.4631C68.4181 35.3758 68.5914 35.156 68.7955 34.8785C68.8667 34.7812 68.9738 34.7162 69.0933 34.6975C69.2128 34.6788 69.3349 34.7081 69.4327 34.7787C69.5306 34.8496 69.5961 34.9561 69.6149 35.0748C69.6337 35.1935 69.6043 35.3149 69.5331 35.4121C69.3165 35.7067 69.0212 36.1089 68.5561 36.3003C68.4053 36.3646 68.2435 36.3984 68.0795 36.4Z" fill="#181E32"/>
<path d="M91.5848 30.7197C91.2708 30.7185 90.9626 30.6456 90.6833 30.5069C90.0831 30.2098 89.746 29.6805 89.783 29.0933C89.7865 29.0334 89.8016 28.975 89.8282 28.9212C89.8549 28.8673 89.8931 28.8192 89.9383 28.7795C89.9835 28.7397 90.0368 28.7094 90.0947 28.6898C90.1527 28.6703 90.2141 28.6622 90.2743 28.6659C90.3357 28.6695 90.3948 28.6849 90.4493 28.7112C90.5049 28.7375 90.5536 28.774 90.5941 28.819C90.6347 28.8638 90.6648 28.916 90.6845 28.9726C90.7053 29.0293 90.7135 29.0892 90.71 29.149C90.6903 29.4552 90.9776 29.6327 91.1028 29.6942C91.3809 29.8319 91.8049 29.8774 92.0784 29.6532C92.1885 29.5559 92.2777 29.438 92.3414 29.3063C92.4051 29.1746 92.4422 29.0317 92.4492 28.8861C92.4804 28.4612 92.3437 28.0408 92.068 27.7127C91.9869 27.621 91.9474 27.5019 91.9567 27.3813C91.966 27.2609 92.0239 27.1489 92.1166 27.0702C92.2105 26.9914 92.331 26.9521 92.4538 26.9613C92.5766 26.9704 92.6902 27.0269 92.7713 27.1185C93.2092 27.6316 93.4248 28.2934 93.3726 28.9612C93.3564 29.2266 93.2869 29.4864 93.1675 29.725C93.0482 29.9637 92.8813 30.1764 92.6774 30.3509C92.368 30.5962 91.9811 30.7267 91.5848 30.7197Z" fill="#181E32"/>
<path d="M70.2678 11.9178C70.1869 11.9176 70.1075 11.8967 70.0376 11.8572C69.8761 11.797 69.7093 11.7511 69.5393 11.7202C68.7049 11.5316 67.1513 11.1791 67.3113 9.55028C67.3413 9.34104 67.4189 9.1411 67.5383 8.96497C67.6578 8.78873 67.8161 8.64089 68.0018 8.532C69.2389 7.73272 70.7581 8.37495 71.9434 9.02267C72.0502 9.08082 72.129 9.17804 72.1623 9.29288C72.1957 9.40772 72.1809 9.53075 72.1212 9.63503C72.0615 9.73921 71.9619 9.81599 71.8441 9.84855C71.7264 9.8811 71.6003 9.86662 71.4935 9.80847C70.5359 9.28535 69.331 8.75213 68.5105 9.28311C68.4413 9.32027 68.3809 9.37101 68.3328 9.43208C68.2847 9.49303 68.2499 9.56308 68.2308 9.63784C68.1606 10.3585 68.6647 10.6021 69.7511 10.848C70.0114 10.8915 70.2642 10.9701 70.5026 11.0815C70.5906 11.1306 70.6596 11.207 70.6986 11.2985C70.7376 11.39 70.7445 11.4914 70.7182 11.5871C70.6919 11.6827 70.634 11.7673 70.5533 11.8275C70.4726 11.8877 70.3739 11.9203 70.2724 11.92L70.2678 11.9178Z" fill="#181E32"/>
<path d="M78.6874 14.8796C78.2923 14.8879 77.9041 14.7815 77.5751 14.5748C77.4331 14.4896 77.3134 14.3753 77.2248 14.2403C77.136 14.1053 77.0808 13.9531 77.063 13.7952C77.0237 13.2215 77.4536 12.6703 78.1086 12.4453C78.6183 12.2732 79.1542 12.3171 79.5841 12.3531C79.6467 12.3583 79.7076 12.375 79.7632 12.4024C79.8189 12.4298 79.8683 12.4673 79.9087 12.5127C79.9491 12.5582 79.9795 12.6107 79.9985 12.6672C80.0173 12.7237 80.0242 12.7834 80.0187 12.8424C80.0132 12.9015 79.9955 12.959 79.9666 13.0116C79.9375 13.0642 79.8979 13.1109 79.8497 13.1491C79.8016 13.1872 79.7461 13.216 79.6862 13.2338C79.6263 13.2517 79.5633 13.2582 79.5007 13.253C79.128 13.2215 78.7421 13.19 78.4289 13.2958C78.1908 13.3767 78.0026 13.5759 78.0133 13.7401C78.0479 13.8447 78.4754 14.1113 79.2042 13.9055C79.3246 13.8738 79.4533 13.8882 79.5626 13.9454C79.6718 14.0026 79.7529 14.0981 79.7884 14.2113C79.8239 14.3245 79.8108 14.4463 79.7521 14.5505C79.6934 14.6546 79.5937 14.7328 79.4745 14.7683C79.2192 14.841 78.9541 14.8785 78.6874 14.8796Z" fill="#181E32"/>
<path d="M65.441 52.5132C65.0192 53.2834 65.599 54.4334 66.4325 54.4787C67.266 54.5239 67.9537 53.4465 67.6087 52.6334C67.2638 51.8203 66.0508 51.6631 65.5356 52.3655L65.441 52.5132Z" fill="#181E32"/>
<path d="M66.467 54.9565H66.3911C66.1074 54.9248 65.8354 54.8228 65.5987 54.6592C65.3619 54.4955 65.1673 54.2752 65.0318 54.0171C64.8961 53.7591 64.8236 53.471 64.8204 53.1777C64.8171 52.8844 64.8833 52.5948 65.0131 52.3337C65.0649 52.2739 65.1087 52.2073 65.1434 52.1357C65.3231 51.9152 65.5536 51.7446 65.814 51.6394C66.0744 51.5341 66.3563 51.4976 66.6339 51.5333C66.9115 51.5689 67.176 51.6755 67.4032 51.8433C67.6304 52.011 67.8131 52.2348 67.9345 52.4938C68.0558 52.7528 68.1122 53.0391 68.0982 53.3263C68.0842 53.6134 68.0004 53.8925 67.8544 54.1378C67.7084 54.383 67.505 54.5869 67.2626 54.7305C67.0202 54.8742 66.7468 54.953 66.467 54.96V54.9565ZM65.8199 52.7506C65.8128 52.7678 65.8045 52.7846 65.795 52.8007C65.6533 53.0511 65.7191 53.3632 65.829 53.5717C65.9389 53.7802 66.1553 54.0085 66.4375 54.0236C66.7197 54.0387 66.9577 53.8349 67.088 53.6381C67.2183 53.4413 67.3146 53.1396 67.2013 52.8752C67.088 52.6108 66.7979 52.4874 66.569 52.4583C66.3401 52.4292 66.033 52.4816 65.8584 52.7087C65.8466 52.7235 65.8337 52.7376 65.8199 52.7506Z" fill="#181E32"/>
<path d="M86.5881 52.4875C86.1856 52.7928 86.1845 53.4471 86.4157 53.8934C86.732 54.5062 87.6162 54.7566 88.2035 54.3876C88.7907 54.0185 88.9267 53.1015 88.4563 52.5982C87.9858 52.0949 86.9916 52.1833 86.5881 52.4875Z" fill="#181E32"/>
<path d="M87.6053 55.0399C87.4447 55.0402 87.284 55.0183 87.1302 54.9749C86.8983 54.9155 86.6823 54.808 86.4956 54.6594C86.3078 54.5107 86.154 54.3243 86.0431 54.1119C85.8904 53.8009 85.8316 53.4522 85.8735 53.108C85.9142 52.7638 86.0545 52.4393 86.2762 52.1739C86.2954 52.1507 86.318 52.1296 86.3429 52.1112C86.8847 51.6905 88.1528 51.5411 88.8145 52.2742C88.9706 52.4524 89.0872 52.6631 89.1539 52.8914C89.2206 53.1198 89.2376 53.3601 89.2025 53.5955C89.1743 53.8369 89.0951 54.0695 88.9695 54.2767C88.8428 54.4839 88.6731 54.6607 88.4729 54.7948C88.2127 54.9581 87.9107 55.0431 87.6053 55.0399ZM86.9266 52.8089C86.835 52.9361 86.7784 53.0859 86.7648 53.2424C86.7501 53.3988 86.7784 53.5564 86.8463 53.6981C86.9006 53.7964 86.9752 53.8823 87.0646 53.9507C87.154 54.0191 87.2558 54.0686 87.3655 54.096C87.4673 54.1275 87.5759 54.1375 87.6822 54.1252C87.7886 54.1127 87.8915 54.0784 87.9854 54.0241C88.0736 53.961 88.1483 53.8792 88.2026 53.7847C88.258 53.6901 88.2919 53.5848 88.3032 53.4758C88.3202 53.3725 88.3146 53.2667 88.2874 53.1656C88.2603 53.0645 88.2116 52.9704 88.146 52.8898C87.8666 52.5809 87.1924 52.6458 86.9289 52.8089H86.9266Z" fill="#181E32"/>
<path d="M64.51 46.56C63.5515 46.56 62.9028 46.143 62.8271 45.4542C62.7857 45.0747 62.9143 44.5172 63.7661 44.0205C64.7982 43.4228 65.9479 43.0676 67.1316 42.9808C68.3153 42.8942 69.503 43.0781 70.6081 43.5192C70.6312 43.5283 70.6536 43.5397 70.6747 43.5532C71.3245 43.9491 71.6689 44.4012 71.6987 44.8955C71.7081 45.0701 71.6756 45.2447 71.604 45.4036C71.5324 45.5627 71.4238 45.7015 71.2877 45.808C71.0007 46.0352 70.6506 46.0645 70.4187 46.0832L64.8028 46.5518C64.7029 46.5565 64.6053 46.56 64.51 46.56ZM67.7244 43.9057C66.4986 43.901 65.2926 44.2207 64.2242 44.8334C63.9165 45.0126 63.7271 45.2164 63.742 45.35C63.7627 45.5386 64.207 45.6569 64.7316 45.6135L70.3464 45.145C70.4777 45.1463 70.6078 45.1183 70.7275 45.063C70.7455 45.0496 70.7602 45.032 70.7702 45.0116C70.7802 44.9912 70.7853 44.9686 70.7849 44.9459C70.778 44.8287 70.6299 44.6156 70.2373 44.3696C69.4342 44.0576 68.5814 43.9005 67.7221 43.9057H67.7244Z" fill="#181E32"/>
<path d="M92.4298 46.7201C91.9684 46.7 91.5103 46.6436 91.0591 46.5514C90.7279 46.4937 90.3852 46.435 90.0425 46.3939C89.3343 46.3154 88.6192 46.2976 87.9065 46.3405C87.3822 46.3594 86.8419 46.3805 86.1577 46.3405C85.269 46.295 84.7287 46.0076 84.5516 45.476C84.3574 44.8966 84.7207 44.2551 85.4791 43.8501C86.7231 43.1842 88.3588 43.0932 89.5559 43.2951C89.6164 43.2874 89.6781 43.291 89.7387 43.3062C92.2117 43.9621 93.5013 44.6835 93.6818 45.5104C93.7172 45.6896 93.7012 45.8753 93.6326 46.0456C93.5652 46.216 93.4487 46.364 93.2968 46.4726C93.0649 46.6557 92.7725 46.7201 92.4298 46.7201ZM88.7746 45.4349C89.2326 45.434 89.6895 45.4611 90.1453 45.516C90.5131 45.5593 90.8672 45.6213 91.2099 45.6802C91.7125 45.7667 92.5521 45.9121 92.7108 45.7911C92.744 45.7656 92.7828 45.7279 92.7771 45.7013C92.7714 45.6746 92.6057 45.0554 89.9009 44.2852C89.8712 44.2827 89.8415 44.2775 89.8129 44.2696C88.9528 44.0354 87.204 43.9366 85.9132 44.6336C85.5888 44.8078 85.3638 45.0654 85.4118 45.2075C85.4586 45.3496 85.743 45.4372 86.1953 45.4605C86.8384 45.4938 87.3605 45.4738 87.8631 45.4605C88.1703 45.4417 88.4662 45.4349 88.7746 45.4349Z" fill="#181E32"/>
<path d="M27.1364 36.1574C28.5366 35.8272 29.9791 35.5294 31.3998 35.3066C31.5945 35.2766 31.8074 35.2512 31.9723 35.3528C32.0638 35.417 32.1397 35.5009 32.1945 35.5987C32.2495 35.6963 32.2819 35.8052 32.2894 35.9173C32.5104 37.7643 32.6626 38.928 32.8859 40.5222C32.9073 40.6335 32.9042 40.7481 32.8767 40.8581C32.8491 40.968 32.798 41.0705 32.7267 41.1583C32.5951 41.3003 32.3902 41.3407 32.2001 41.373C31.2934 41.53 30.3878 41.6985 29.4776 41.8428C28.9476 41.9271 28.5469 41.9894 27.947 42.1326C27.3024 42.2873 27.3264 41.7493 27.2715 41.4907C27.2211 41.2518 27.1982 40.9747 27.157 40.7542C26.9074 39.3539 26.9337 38.8079 26.4632 36.9193C26.4071 36.6676 26.2697 36.3629 27.1364 36.1574Z" fill="#FF6800"/>
<path d="M35.6062 40.24C35.5195 40.2398 35.4344 40.216 35.3608 40.1712C35.287 40.1264 35.2274 40.0625 35.1887 39.9865C35.15 39.9106 35.1337 39.8256 35.1416 39.741C35.1494 39.6565 35.1811 39.5759 35.2332 39.5079L39.338 34.1821C39.375 34.134 39.4214 34.0937 39.4743 34.0632C39.5273 34.0327 39.5859 34.0128 39.6467 34.0044C39.7076 33.9961 39.7695 33.9995 39.829 34.0146C39.8886 34.0297 39.9445 34.0561 39.9935 34.0923C40.0426 34.1286 40.0839 34.1738 40.115 34.2256C40.1462 34.2774 40.1667 34.3347 40.1752 34.3943C40.1836 34.4538 40.1801 34.5144 40.1647 34.5726C40.1492 34.6308 40.1223 34.6854 40.0853 34.7334L35.9805 40.0581C35.9368 40.1147 35.8802 40.1606 35.8153 40.1922C35.7503 40.2238 35.6787 40.2401 35.6062 40.24Z" fill="#181E32"/>
<path d="M40.9155 39.12C40.867 39.1196 40.8189 39.1119 40.7729 39.0969C38.4958 38.3567 36.5192 36.9044 35.1365 34.9554C35.0705 34.8551 35.0462 34.7331 35.0688 34.6154C35.0914 34.4976 35.1591 34.3932 35.2575 34.3241C35.3559 34.2551 35.4774 34.2269 35.5964 34.2456C35.7152 34.2642 35.8222 34.3282 35.8947 34.424C37.1616 36.2091 38.9723 37.5394 41.058 38.2178C41.1635 38.2514 41.2534 38.3215 41.3115 38.4154C41.3697 38.5093 41.3921 38.6208 41.3749 38.7299C41.3577 38.8388 41.3018 38.938 41.2176 39.0097C41.1333 39.0812 41.0262 39.1203 40.9155 39.12Z" fill="#181E32"/>
<path d="M136.292 51.9201C133.079 51.9201 130.306 51.0949 128.044 49.4629C127.624 49.1608 127.207 48.8232 126.803 48.497C125.37 47.3377 124.015 46.2458 122.41 46.3935C121.483 46.4793 120.594 47.0149 119.81 47.4876C119.52 47.6638 118.949 48.0827 118.288 48.5668C115.313 50.7527 113.532 51.912 112.557 51.912C112.428 51.9187 112.301 51.8943 112.186 51.8411C112.069 51.7879 111.969 51.7074 111.891 51.6065C110.885 50.3144 112.899 48.5576 114.369 47.2747C114.712 46.976 115.007 46.7185 115.169 46.548C116.155 45.4826 117.075 44.3574 117.924 43.1787C118.496 42.3776 119.123 41.4437 119.279 40.4091C119.483 39.0678 118.873 37.683 118.321 36.6256C117.91 35.8416 117.44 35.0474 116.986 34.2806C115.541 31.836 114.047 29.3091 113.991 26.4182C113.945 24.0743 114.857 21.6115 116.781 18.8842C119.308 15.3578 122.593 12.4439 126.396 10.3573C130.199 8.27088 134.422 7.06497 138.753 6.82853C143.188 6.62138 147.103 7.54725 150.07 9.5077C151.99 10.7746 153.766 12.6332 155.497 15.1899C159.592 21.2281 162.578 30.5554 158.688 38.6238C155.837 44.536 150.169 47.9522 145.915 49.7765C142.826 51.0995 139.675 51.8365 136.788 51.912C136.62 51.9201 136.457 51.9201 136.292 51.9201ZM122.709 45.4642C124.506 45.4642 125.963 46.6418 127.377 47.784C127.789 48.1182 128.178 48.4329 128.577 48.7202C134.459 52.9626 142.409 50.2846 145.553 48.9353C149.663 47.1729 155.135 43.8848 157.863 38.2266C161.584 30.5084 158.69 21.5325 154.739 15.7049C153.075 13.2501 151.383 11.4704 149.565 10.2722C146.019 7.93178 141.751 7.60561 138.795 7.74409C130.476 8.13435 122.322 12.6057 117.518 19.4175C115.712 21.9777 114.854 24.2643 114.895 26.4067C114.947 29.0561 116.382 31.4778 117.764 33.8194C118.221 34.5976 118.699 35.401 119.12 36.2067C119.739 37.3878 120.418 38.9477 120.174 40.5556C119.986 41.7916 119.292 42.8388 118.657 43.7223C117.785 44.9312 116.842 46.0854 115.831 47.1786C115.639 47.3857 115.326 47.6581 114.965 47.974C114.137 48.695 112.229 50.3602 112.577 51.0068C112.71 51.0068 113.196 50.9244 114.596 50.0386C115.626 49.3839 116.801 48.5267 117.74 47.8378C118.447 47.3193 119.005 46.9096 119.331 46.7128C120.199 46.1898 121.182 45.5969 122.319 45.4905C122.454 45.4745 122.584 45.4665 122.71 45.4665L122.709 45.4642Z" fill="#1B5EC9"/>
<path d="M135.04 19.28C134.947 19.2814 134.857 19.2537 134.779 19.2008C134.702 19.1481 134.644 19.0727 134.611 18.9846C134.577 18.8967 134.571 18.8005 134.594 18.7089C134.615 18.6173 134.664 18.5348 134.734 18.4724C136.649 16.6875 138.307 14.6369 139.661 12.3811C139.691 12.3294 139.732 12.2844 139.78 12.2486C139.828 12.213 139.883 12.1872 139.941 12.1729C139.998 12.1588 140.058 12.1562 140.117 12.1656C140.176 12.175 140.233 12.1961 140.284 12.2276C140.334 12.2592 140.378 12.3008 140.413 12.3497C140.448 12.3987 140.474 12.4542 140.488 12.5132C140.501 12.5721 140.504 12.6333 140.495 12.6931C140.486 12.753 140.465 12.8105 140.435 12.8621C139.036 15.1945 137.323 17.3147 135.345 19.16C135.261 19.2372 135.152 19.28 135.04 19.28Z" fill="#1B5EC9"/>
<path d="M139.888 18.72C139.825 18.7203 139.762 18.7064 139.703 18.6795C139.644 18.6525 139.592 18.6131 139.549 18.5638C137.972 16.7307 136.734 14.6155 135.893 12.3226C135.871 12.265 135.859 12.2031 135.86 12.1409C135.862 12.0787 135.874 12.0172 135.898 11.9601C135.923 11.903 135.957 11.8515 136.001 11.8086C136.045 11.7656 136.096 11.7323 136.152 11.7102C136.209 11.6882 136.27 11.678 136.33 11.6804C136.39 11.6827 136.45 11.6974 136.504 11.7238C136.558 11.75 136.608 11.7873 136.649 11.8335C136.688 11.8797 136.72 11.9337 136.739 11.9925C137.541 14.1778 138.723 16.1937 140.226 17.9409C140.285 18.0082 140.323 18.0914 140.335 18.1803C140.349 18.2691 140.336 18.36 140.3 18.4419C140.265 18.5238 140.206 18.5933 140.134 18.642C140.06 18.6908 139.975 18.7167 139.887 18.7166L139.888 18.72Z" fill="#1B5EC9"/>
<path d="M134.394 23.2C132.36 23.2 130.331 23.1749 128.307 23.1247C128.184 23.1216 128.07 23.0728 127.986 22.9887C127.903 22.9047 127.857 22.7925 127.861 22.6767C127.864 22.5609 127.915 22.4511 128.004 22.3714C128.092 22.2917 128.208 22.2486 128.331 22.2517C134.547 22.4066 140.847 22.3226 147.057 22.0007C147.178 21.9943 147.297 22.0342 147.388 22.1115C147.478 22.1889 147.533 22.2974 147.54 22.4132C147.546 22.529 147.504 22.6425 147.423 22.7289C147.342 22.8152 147.229 22.8674 147.107 22.8737C142.894 23.0909 138.638 23.2 134.394 23.2Z" fill="#1B5EC9"/>
<path d="M127.633 40.1599C127.571 40.1599 127.509 40.1472 127.452 40.1224C127.395 40.0976 127.343 40.0615 127.3 40.016C125.897 38.5311 125.387 36.5321 124.896 34.5983C124.848 34.4064 124.8 34.2161 124.75 34.0272C124.515 33.1248 124.094 31.8923 123.161 31.6181C122.968 31.5786 122.767 31.5809 122.575 31.6248C122.382 31.6685 122.201 31.7529 122.043 31.8723C121.885 31.9916 121.754 32.1432 121.661 32.3169C121.567 32.4905 121.511 32.6823 121.496 32.8792C121.497 32.9393 121.487 32.9988 121.464 33.0546C121.442 33.1104 121.409 33.1612 121.368 33.2043C121.325 33.2473 121.275 33.2818 121.22 33.3056C121.165 33.3294 121.105 33.342 121.045 33.3429H121.038C120.917 33.3429 120.801 33.2949 120.715 33.2092C120.629 33.1235 120.58 33.0072 120.58 32.886C120.593 32.5453 120.681 32.2115 120.838 31.9088C120.994 31.6061 121.218 31.3422 121.49 31.1361C121.762 30.9301 122.077 30.7871 122.411 30.7176C122.746 30.648 123.091 30.6536 123.423 30.734C124.797 31.1384 125.348 32.6759 125.639 33.7896C125.689 33.9815 125.74 34.1738 125.788 34.3664C126.163 35.8399 126.549 37.3534 127.339 38.5733C127.794 35.1116 127.801 31.6058 127.359 28.1422C127.32 27.8303 127.399 27.5149 127.581 27.2584C127.764 27.0018 128.036 26.8228 128.344 26.7567C134.831 25.3461 141.513 25.0662 148.095 25.9297C148.203 25.9438 148.306 25.9811 148.396 26.0389C148.488 26.0967 148.565 26.1737 148.623 26.2644C148.681 26.3551 148.719 26.4574 148.734 26.5641C148.748 26.6709 148.738 26.7794 148.706 26.8823C148.108 28.824 147.665 30.8102 147.381 32.8221C147.374 32.8827 147.356 32.9413 147.326 32.9944C147.295 33.0476 147.255 33.0942 147.207 33.1315C147.159 33.1689 147.103 33.1962 147.045 33.2118C146.985 33.2275 146.923 33.2311 146.864 33.2227C146.803 33.2142 146.745 33.1938 146.692 33.1625C146.639 33.1313 146.594 33.0898 146.558 33.0407C146.521 32.9915 146.495 32.9356 146.481 32.8763C146.468 32.817 146.465 32.7555 146.475 32.6953C146.756 30.7034 147.19 28.736 147.771 26.8104C141.362 25.9934 134.858 26.2774 128.543 27.6499C128.459 27.6676 128.384 27.7165 128.334 27.7868C128.284 27.8571 128.262 27.9436 128.273 28.0292C128.771 31.9312 128.71 35.8839 128.095 39.7693C128.079 39.8778 128.023 39.9766 127.938 40.0475C127.855 40.1185 127.748 40.1567 127.637 40.1554L127.633 40.1599Z" fill="#1B5EC9"/>
<path d="M136.013 37.84H135.991C135.872 37.8341 135.759 37.7801 135.678 37.6899C135.597 37.5997 135.555 37.4808 135.561 37.3591C135.635 35.803 135.674 34.2251 135.674 32.6609C134.659 33.3754 133.75 34.235 132.976 35.2132C132.901 35.304 132.792 35.3609 132.675 35.3721C132.558 35.3834 132.441 35.3479 132.35 35.2733C132.258 35.1988 132.198 35.091 132.183 34.9725C132.169 34.8542 132.2 34.7347 132.27 34.6394C133.283 33.3612 134.508 32.2735 135.891 31.4262C135.96 31.3842 136.038 31.3613 136.118 31.3601C136.199 31.3587 136.277 31.3789 136.347 31.4185C136.417 31.4582 136.475 31.5159 136.516 31.5858C136.556 31.6557 136.578 31.7352 136.578 31.8163C136.589 33.672 136.55 35.5517 136.465 37.4051C136.459 37.5225 136.409 37.6328 136.325 37.7139C136.241 37.7948 136.13 37.8399 136.013 37.84Z" fill="#1B5EC9"/>
<path d="M141.486 39.1996C140.622 39.2037 139.789 38.889 139.155 38.3185C138.019 37.2832 137.691 35.4836 138.374 34.0491C139.011 32.7099 140.451 31.7494 142.042 31.602C142.166 31.5906 142.288 31.6274 142.383 31.7043C142.479 31.7813 142.538 31.8922 142.551 32.0125C142.563 32.1327 142.525 32.2527 142.446 32.3458C142.367 32.439 142.254 32.4977 142.131 32.5092C140.861 32.6226 139.718 33.3823 139.217 34.4369C139.022 34.8551 138.932 35.3127 138.955 35.7716L138.976 35.758C139.522 35.4275 140.133 35.2122 140.769 35.1262C141.406 35.04 142.054 35.0849 142.672 35.2579C143.619 35.5301 144.238 36.122 144.329 36.8455C144.399 37.4181 144.125 38.0123 143.576 38.4773C142.99 38.955 142.248 39.2114 141.486 39.1996ZM139.102 36.5733C139.234 36.985 139.469 37.3575 139.789 37.6563C140.657 38.45 142.112 38.5056 142.967 37.7821C143.199 37.5814 143.445 37.256 143.406 36.9453C143.354 36.5336 142.837 36.2445 142.411 36.122C141.918 35.9846 141.401 35.9493 140.895 36.0185C140.388 36.0875 139.902 36.2596 139.467 36.5234C139.412 36.5555 139.352 36.5765 139.289 36.5851C139.227 36.5937 139.163 36.5897 139.102 36.5733Z" fill="#1B5EC9"/>
<path d="M117.382 130.725C118.821 132.379 121.967 132.727 123.983 131.861C124.785 131.518 125.473 130.934 126.046 130.267C127.888 128.125 128.504 124.93 127.369 122.344C126.234 119.757 123.298 118.013 120.509 118.474C118.608 118.787 116.879 120.144 116.186 121.923C114.122 127.231 116.579 129.801 117.382 130.725Z" fill="#1B5EC9"/>
<path d="M147.71 113.44C156.318 113.44 157.04 102.338 151.157 99.1334C147.287 97.0264 143.012 98.9045 141.719 102.076C138.935 108.902 143.091 113.44 147.71 113.44Z" fill="#1B5EC9"/>
<path d="M119.333 120.32C119.249 120.32 119.166 120.295 119.095 120.246C118.067 119.556 117.363 117.639 117.222 116.19C117.216 116.129 117.222 116.068 117.238 116.01C117.256 115.952 117.283 115.897 117.32 115.85C117.356 115.803 117.401 115.764 117.453 115.735C117.504 115.706 117.56 115.689 117.618 115.682C117.677 115.676 117.735 115.682 117.79 115.699C117.846 115.717 117.898 115.746 117.943 115.785C117.989 115.823 118.026 115.87 118.054 115.924C118.081 115.977 118.098 116.036 118.103 116.097C118.238 117.477 118.912 119.025 119.577 119.473C119.658 119.527 119.719 119.607 119.752 119.7C119.785 119.793 119.789 119.895 119.761 119.99C119.734 120.085 119.679 120.169 119.601 120.229C119.525 120.288 119.433 120.32 119.337 120.32H119.333Z" fill="#181E32"/>
<path d="M142.837 102.24C142.763 102.24 142.689 102.221 142.624 102.186C142.557 102.151 142.501 102.1 142.46 102.038C141.827 101.104 139.782 99.1984 138.813 98.6393C138.76 98.609 138.713 98.567 138.677 98.5191C138.639 98.4701 138.613 98.4141 138.597 98.3545C138.581 98.295 138.576 98.2332 138.584 98.1713C138.591 98.1094 138.61 98.0511 138.641 97.9974C138.671 97.9437 138.711 97.897 138.759 97.8585C138.807 97.8211 138.861 97.7931 138.92 97.7768C138.979 97.7605 139.04 97.7558 139.1 97.7639C139.161 97.7721 139.219 97.792 139.272 97.8223C140.365 98.4537 142.506 100.45 143.22 101.504C143.267 101.574 143.294 101.655 143.299 101.74C143.305 101.826 143.286 101.91 143.247 101.986C143.208 102.06 143.151 102.123 143.079 102.168C143.008 102.212 142.925 102.235 142.843 102.235L142.837 102.24Z" fill="#181E32"/>
<path d="M116.976 117.6C116.591 117.602 116.209 117.511 115.865 117.334C114.225 116.491 114.06 115.326 113.759 113.214C113.645 112.374 113.492 111.327 113.221 110.038C112.098 104.701 111.371 98.6269 114.507 94.0536C117.541 89.6302 123.405 88.5258 127.869 89.3933C130.936 89.9884 133.174 91.2142 135.337 92.3998C136.56 93.0693 137.825 93.7618 139.217 94.3225C141.213 95.1237 142.097 96.3711 141.917 98.1233C141.774 99.515 140.087 101.044 138.684 101.044C137.047 101.044 136.098 99.8286 135.26 98.7551C135.061 98.4999 134.873 98.2595 134.68 98.0375C132.934 96.0095 130.678 94.4828 128.146 93.6164C125.317 92.6722 122.67 92.8965 120.281 94.2813C117.801 95.7199 116.236 98.8798 116.298 102.33C116.358 105.747 117.807 108.907 119.157 111.601C119.636 112.554 120.758 114.785 119.552 116.359C119.153 116.882 118.101 117.6 116.976 117.6ZM124.962 90.0308C121.368 90.0308 117.48 91.3366 115.262 94.5697C112.322 98.8569 113.032 104.698 114.118 109.847C114.396 111.166 114.547 112.229 114.668 113.084C114.959 115.128 115.068 115.894 116.287 116.517C117.212 116.995 118.453 116.288 118.831 115.799C119.688 114.68 118.782 112.876 118.346 112.009C116.947 109.225 115.45 105.953 115.387 102.343C115.32 98.5662 117.063 95.0882 119.826 93.4859C122.457 91.9638 125.35 91.7143 128.439 92.7443C131.127 93.6633 133.519 95.2839 135.372 97.4366C135.582 97.677 135.786 97.9391 135.984 98.192C136.761 99.1877 137.497 100.128 138.687 100.128C139.612 100.128 140.916 98.9519 141.011 98.0295C141.103 97.1368 140.944 96.0049 138.878 95.1683C137.436 94.5881 136.147 93.8819 134.902 93.1987C132.702 91.9947 130.625 90.8559 127.697 90.2883C126.796 90.1155 125.881 90.0296 124.962 90.0308Z" fill="#181E32"/>
<path d="M125.566 126.96C125.446 126.96 125.331 126.912 125.246 126.827C125.161 126.741 125.112 126.625 125.112 126.504C125.09 125.386 124.793 124.292 124.248 123.317C123.703 122.342 122.925 121.519 121.986 120.919C121.887 120.854 121.816 120.752 121.791 120.636C121.765 120.52 121.786 120.398 121.848 120.296C121.911 120.195 122.009 120.123 122.125 120.093C122.24 120.065 122.361 120.083 122.464 120.143C123.533 120.826 124.417 121.764 125.038 122.873C125.658 123.983 125.995 125.229 126.02 126.501C126.02 126.622 125.973 126.738 125.887 126.823C125.802 126.909 125.688 126.957 125.566 126.957V126.96Z" fill="white"/>
<path d="M152.759 103.76C152.664 103.76 152.573 103.731 152.495 103.678C152.418 103.623 152.359 103.548 152.325 103.46C151.838 102.184 150.911 101.125 149.712 100.477C149.657 100.449 149.609 100.41 149.569 100.364C149.53 100.316 149.5 100.261 149.482 100.204C149.463 100.144 149.456 100.083 149.462 100.021C149.468 99.96 149.485 99.8997 149.514 99.8464C149.543 99.7919 149.582 99.7432 149.631 99.7049C149.678 99.6655 149.732 99.6365 149.791 99.6191C149.85 99.6017 149.911 99.5959 149.973 99.6028C150.034 99.6098 150.093 99.6284 150.146 99.6585C151.543 100.415 152.623 101.649 153.191 103.137C153.234 103.252 153.229 103.38 153.179 103.491C153.128 103.603 153.036 103.69 152.92 103.734C152.868 103.753 152.813 103.761 152.759 103.76Z" fill="white"/>
<path d="M153.028 108.24C152.961 108.24 152.894 108.224 152.832 108.193C152.779 108.166 152.732 108.129 152.692 108.082C152.653 108.037 152.624 107.983 152.605 107.925C152.586 107.868 152.577 107.806 152.581 107.745C152.585 107.683 152.599 107.624 152.625 107.569C152.744 107.315 153.104 106.186 152.686 105.316C152.633 105.205 152.624 105.076 152.662 104.958C152.7 104.842 152.781 104.745 152.888 104.689C152.995 104.634 153.118 104.625 153.231 104.664C153.344 104.704 153.437 104.788 153.49 104.899C154.064 106.097 153.644 107.527 153.433 107.977C153.397 108.056 153.339 108.122 153.268 108.169C153.196 108.215 153.114 108.24 153.028 108.24Z" fill="white"/>
<path d="M31.3163 75.3532C31.214 75.3531 31.1146 75.3194 31.0337 75.2572C30.9528 75.1949 30.895 75.1077 30.8695 75.0094C28.6217 66.024 26.8979 56.9174 25.7067 47.735C25.6963 47.6741 25.6984 47.6116 25.7129 47.5516C25.7275 47.4914 25.7541 47.4348 25.7912 47.3852C25.8284 47.3356 25.8753 47.2938 25.9291 47.2627C25.9829 47.2315 26.0425 47.2114 26.1043 47.2036C26.1662 47.196 26.2289 47.2007 26.2888 47.2176C26.3487 47.2346 26.4045 47.2635 26.453 47.3024C26.5014 47.3413 26.5413 47.3895 26.5704 47.4442C26.5995 47.4989 26.6172 47.5588 26.6224 47.6204C27.8094 56.7665 29.5267 65.8371 31.7655 74.7871C31.7832 74.855 31.7849 74.926 31.7706 74.9946C31.7563 75.0634 31.7263 75.1278 31.6828 75.1831C31.6394 75.2385 31.5839 75.2833 31.5203 75.3139C31.4567 75.3446 31.387 75.3604 31.3163 75.3601V75.3532Z" fill="white"/>
<path d="M33.4724 84.16C33.3861 84.1589 33.3014 84.1363 33.2276 84.0945C33.1536 84.0517 33.0932 83.9896 33.0526 83.9173C32.868 83.5787 32.4199 81.6092 32.4199 81.336C32.4187 81.2164 32.467 81.1001 32.5544 81.0155C32.6416 80.9297 32.7609 80.8812 32.8856 80.88C33.0103 80.8789 33.1304 80.9252 33.2196 81.0087C33.3086 81.0922 33.3594 81.2073 33.3607 81.327C33.383 81.6001 33.7758 83.2661 33.8875 83.5009C33.9443 83.6058 33.9555 83.7289 33.9184 83.8428C33.8815 83.9557 33.7993 84.0505 33.6899 84.107C33.6232 84.1419 33.5484 84.16 33.4724 84.16Z" fill="white"/>
<path d="M37.7182 99.9201C37.6172 99.9201 37.5191 99.8869 37.4387 99.8264C37.3583 99.7658 37.3003 99.6813 37.2732 99.5853C36.8791 98.1881 36.4005 96.5339 35.9382 94.9345C35.4759 93.3351 34.9962 91.6763 34.602 90.2768C34.5831 90.2185 34.5764 90.1568 34.582 90.0951C34.5878 90.0346 34.6059 89.9752 34.6355 89.9204C34.665 89.8667 34.7052 89.8187 34.7538 89.781C34.8023 89.7421 34.8582 89.7136 34.918 89.6976C34.9779 89.6804 35.0406 89.6759 35.1022 89.6839C35.1639 89.6919 35.2232 89.7124 35.2768 89.7433C35.3303 89.7753 35.377 89.8164 35.414 89.8655C35.451 89.9146 35.4776 89.9718 35.492 90.0312C35.8862 91.4284 36.3647 93.0826 36.8271 94.6832C37.2894 96.2837 37.7691 97.9402 38.1632 99.3408C38.1823 99.4082 38.1852 99.4802 38.1718 99.5488C38.1584 99.6185 38.129 99.6836 38.0859 99.7396C38.0429 99.7955 37.9873 99.8412 37.9235 99.8721C37.8597 99.9029 37.7894 99.9201 37.7182 99.9201Z" fill="white"/>
<path d="M23.94 161.52C21.3701 161.52 19.0267 160.927 17.0861 159.741C14.0448 157.88 12.0321 154.484 11.4989 150.758C8.32708 150.809 4.67242 150.103 2.37367 147.19C-1.25239 142.595 1.19168 135.908 2.9721 132.335C6.01231 126.227 10.1807 120.836 15.0162 116.746C20.3792 112.213 26.4264 109.466 32.5069 108.803C32.5669 108.796 32.6278 108.802 32.6857 108.819C32.7437 108.836 32.7978 108.863 32.8449 108.902C32.892 108.94 32.9311 108.987 32.9601 109.039C32.989 109.092 33.0074 109.15 33.0138 109.211C33.0202 109.27 33.0148 109.332 32.9977 109.389C32.9807 109.447 32.9524 109.501 32.9144 109.548C32.8766 109.595 32.8298 109.635 32.7767 109.663C32.7236 109.692 32.6653 109.71 32.6053 109.717C19.0782 111.191 8.85228 122.581 3.79251 132.746C2.10821 136.13 -0.221437 142.432 3.09339 146.633C5.15299 149.237 8.47125 149.893 11.3982 149.856C11.2857 148.41 11.4016 146.955 11.7414 145.545C12.9166 140.699 16.6788 136.265 21.8106 133.684C24.1677 132.499 26.2422 131.999 28.1531 132.154C30.6303 132.357 32.7597 133.774 33.5767 135.765C34.3456 137.637 33.9463 139.993 32.5366 141.924C31.2402 143.695 29.3568 144.88 27.6851 145.809C24.1586 147.758 20.3788 149.213 16.4534 150.128C15.1261 150.44 13.775 150.64 12.4143 150.727C12.9269 154.155 14.7782 157.261 17.5633 158.966C21.1882 161.182 26.3738 161.16 31.7929 158.905C34.1477 157.925 36.419 156.638 38.6159 155.395C40.7613 154.179 42.9811 152.923 45.297 151.937C47.8624 150.845 50.4872 150.2 52.8878 150.073C55.7255 149.923 58.2428 150.47 60.3676 151.701C61.7808 152.519 62.9879 153.626 64.155 154.698C64.7878 155.279 65.4434 155.88 66.1162 156.42C73.7059 162.506 86.0321 161.469 92.4935 154.2C93.3551 153.232 94.1801 152.125 94.9765 151.053C97.329 147.893 99.7628 144.626 103.654 144.032C108.754 143.255 113.205 147.326 116.781 150.596C120.454 153.954 123.724 156.291 126.506 157.539C128.92 158.624 130.913 158.874 132.428 158.279C134.752 157.365 135.443 154.684 135.615 152.592C136.187 145.522 131.856 134.687 124.712 130.44C124.612 130.376 124.541 130.276 124.514 130.16C124.487 130.045 124.506 129.924 124.566 129.822C124.627 129.72 124.725 129.646 124.84 129.614C124.954 129.583 125.077 129.598 125.179 129.655C132.617 134.073 137.126 145.328 136.527 152.666C136.251 156.038 134.95 158.274 132.762 159.131C129.101 160.567 123.362 157.848 116.171 151.27C112.56 147.969 108.468 144.226 103.801 144.936C100.28 145.473 98.0648 148.448 95.7202 151.598C94.9101 152.686 94.0737 153.81 93.1869 154.808C89.3904 159.077 83.6624 161.295 77.9624 161.295C73.4999 161.295 69.0454 159.934 65.5521 157.133C64.8553 156.573 64.1894 155.962 63.544 155.371C62.362 154.284 61.2441 153.259 59.9179 152.491C56.2621 150.374 51.0674 150.479 45.6655 152.778C43.3965 153.744 41.203 154.987 39.077 156.19C36.8561 157.447 34.5608 158.748 32.1545 159.749C29.3019 160.928 26.5077 161.52 23.94 161.52ZM27.4643 133.033C25.8887 133.033 24.1655 133.513 22.218 134.494C17.3264 136.954 13.7427 141.164 12.6305 145.753C12.3094 147.082 12.2018 148.453 12.3113 149.815C13.6366 149.732 14.9526 149.537 16.2451 149.233C20.0872 148.334 23.7864 146.908 27.2377 144.997C28.8213 144.12 30.6017 143.003 31.7929 141.376C33.016 139.704 33.3742 137.684 32.7254 136.105C32.048 134.454 30.1784 133.229 28.0741 133.057C27.8728 133.041 27.6702 133.033 27.4643 133.033Z" fill="#181E32"/>
<path d="M113.046 112.48C112.923 112.482 112.807 112.437 112.719 112.352C112.633 112.268 112.582 112.153 112.58 112.032C112.578 111.911 112.624 111.795 112.708 111.707C112.791 111.62 112.906 111.57 113.028 111.568C114.974 111.492 116.865 110.897 118.503 109.843C118.553 109.807 118.609 109.782 118.67 109.77C118.73 109.757 118.792 109.757 118.852 109.768C118.913 109.78 118.97 109.804 119.02 109.839C119.071 109.873 119.114 109.918 119.148 109.969C119.181 110.02 119.203 110.079 119.214 110.139C119.224 110.199 119.222 110.261 119.208 110.321C119.194 110.381 119.168 110.437 119.132 110.487C119.095 110.536 119.049 110.577 118.996 110.609C117.222 111.752 115.174 112.398 113.065 112.479L113.046 112.48Z" fill="#181E32"/>
<path d="M133.342 97.9199C133.254 97.9176 133.167 97.8886 133.094 97.8363C133.021 97.7829 132.964 97.7098 132.932 97.625C132.899 97.5391 132.891 97.4462 132.911 97.3568C132.93 97.2674 132.974 97.1861 133.037 97.1223C134.631 95.5851 135.773 93.6206 136.333 91.4518C136.367 91.3369 136.443 91.2393 136.545 91.1801C136.647 91.1209 136.768 91.1046 136.881 91.1348C136.994 91.165 137.092 91.2393 137.153 91.3415C137.215 91.4437 137.235 91.5667 137.209 91.684C136.606 94.0223 135.375 96.1412 133.655 97.7992C133.571 97.8793 133.459 97.9222 133.342 97.9199Z" fill="#181E32"/>
<path d="M61.8776 50.4C61.8155 50.4 61.7541 50.3876 61.6969 50.3633C60.1566 49.6967 58.7638 49.2952 57.4168 48.9074C56.0446 48.5128 54.6209 48.1044 53.0257 47.416C51.3105 46.6738 49.5369 45.9074 47.6913 45.5529C46.3488 45.2959 45.2899 45.3568 44.4666 45.7422C43.6432 46.1277 42.8451 47.0891 43.0395 48.0986C43.1002 48.3323 43.208 48.551 43.3562 48.7413C43.5043 48.9315 43.6897 49.0894 43.9009 49.2051C44.1122 49.3209 44.3448 49.392 44.5844 49.4143C44.824 49.4364 45.0657 49.4092 45.2945 49.3342C45.3502 49.3116 45.4097 49.3002 45.4699 49.3008C45.5299 49.3013 45.5894 49.3137 45.6446 49.3372C45.7 49.3608 45.7502 49.395 45.7922 49.438C45.8344 49.4811 45.8677 49.5319 45.8902 49.5877C45.9128 49.6437 45.9241 49.7035 45.9235 49.7637C45.9231 49.8241 45.9107 49.8836 45.8873 49.9391C45.8638 49.9947 45.8296 50.045 45.7867 50.0872C45.744 50.1295 45.6932 50.1628 45.6375 50.1854C45.2835 50.3107 44.9073 50.3598 44.5331 50.3297C44.1591 50.2995 43.7954 50.1906 43.466 50.0103C43.1366 49.8299 42.8486 49.582 42.6208 49.2827C42.3932 48.9835 42.2307 48.6394 42.1441 48.273C41.896 46.9847 42.7307 45.5392 44.0881 44.9093C45.0944 44.4413 46.3316 44.3564 47.8696 44.6524C49.8136 45.0241 51.6329 45.8122 53.3939 46.5728C54.9354 47.2394 56.3282 47.6409 57.6741 48.0287C59.0463 48.4233 60.4699 48.8317 62.0651 49.5201C62.1616 49.562 62.2408 49.6362 62.2891 49.7298C62.3376 49.8234 62.3524 49.931 62.3311 50.0342C62.3097 50.1376 62.2536 50.2304 62.1719 50.297C62.0904 50.3636 61.9885 50.4 61.8833 50.4H61.8776Z" fill="white"/>
<path d="M77.9407 88.56H77.6612C76.2592 88.5383 74.864 88.3957 74.1471 87.5031C73.6767 86.9187 73.6926 86.1985 73.704 85.7214C73.7915 81.8613 74.2187 77.2248 74.7924 73.9079C74.8015 73.8478 74.8224 73.7902 74.854 73.7383C74.8856 73.6865 74.9271 73.6415 74.9761 73.6061C75.0253 73.5706 75.0809 73.5452 75.1399 73.5316C75.1988 73.518 75.26 73.5163 75.3195 73.5267C75.3791 73.5372 75.4361 73.5595 75.487 73.5922C75.5379 73.625 75.5818 73.6677 75.616 73.7178C75.6503 73.7679 75.6743 73.8243 75.6867 73.8837C75.699 73.9433 75.6993 74.0046 75.6877 74.0643C75.1196 77.34 74.6993 81.9241 74.6118 85.742C74.6016 86.2305 74.6118 86.6288 74.8538 86.929C75.3378 87.5305 76.5512 87.6298 77.6749 87.6469C78.0907 87.6538 78.6088 87.6606 78.9576 87.4906C79.4416 87.2554 79.5438 86.7612 79.3246 85.7249C78.6508 82.553 78.577 77.4142 79.7688 74.1396C79.786 74.0791 79.8154 74.0229 79.8553 73.9744C79.895 73.9257 79.9445 73.886 80.0003 73.8576C80.0561 73.8292 80.1173 73.8126 80.1798 73.8091C80.2424 73.8054 80.3048 73.8149 80.3636 73.8367C80.4223 73.8585 80.4759 73.8924 80.5215 73.936C80.5658 73.9796 80.6022 74.0321 80.626 74.0903C80.6499 74.1484 80.6613 74.2109 80.6601 74.2737C80.659 74.3366 80.6453 74.3986 80.6181 74.4558C79.4825 77.5695 79.562 82.4891 80.2096 85.5377C80.3335 86.1221 80.6635 87.6766 79.3507 88.3158C78.9053 88.5281 78.3929 88.56 77.9407 88.56Z" fill="#181E32"/>
<path d="M92.8765 50.4801C92.7773 50.4801 92.6815 50.4483 92.6028 50.3897C92.5242 50.3311 92.466 50.2488 92.4386 50.1549C92.4101 50.0611 92.4147 49.9608 92.4489 49.869C92.4831 49.7773 92.5458 49.699 92.629 49.6459C95.1796 48.0105 102.34 44.2706 103.899 43.7617C105.171 43.3435 106.229 43.3333 107.132 43.73C108.158 44.1833 109.15 45.4016 109.053 46.8591C109.029 47.2471 108.915 47.6244 108.719 47.9612C108.524 48.298 108.253 48.5849 107.927 48.7993C107.678 48.9673 107.396 49.0747 107.098 49.1132C106.8 49.1516 106.498 49.1197 106.217 49.0203C106.103 48.9784 106.01 48.8934 105.96 48.784C105.91 48.6747 105.905 48.5499 105.947 48.4372C105.99 48.3245 106.075 48.233 106.186 48.183C106.295 48.1329 106.421 48.1284 106.535 48.1703C106.683 48.219 106.843 48.2323 106.998 48.2093C107.153 48.1863 107.301 48.1275 107.43 48.0377C107.636 47.899 107.807 47.7152 107.931 47.5002C108.055 47.2853 108.128 47.045 108.143 46.7979C108.21 45.8051 107.494 44.8792 106.763 44.5573C106.079 44.2558 105.234 44.2762 104.185 44.6208C102.709 45.1058 95.573 48.8379 93.1182 50.4075C93.0452 50.4538 92.962 50.4789 92.8765 50.4801Z" fill="white"/>
<path d="M79.9393 22.8C78.7716 22.8014 77.6144 22.5807 76.5302 22.1499C75.1739 21.6099 73.6312 20.4549 73.2561 18.8428C69.5096 21.282 65.4659 22.3349 61.7949 21.8118C60.4695 21.6224 59.606 21.1686 59.1532 20.4243C58.6854 19.6551 58.7117 18.5988 59.2252 17.5267C60.1401 15.6139 62.1917 14.2615 64.3234 14.1605C64.4447 14.1549 64.5633 14.1972 64.6532 14.2782C64.7431 14.3593 64.7969 14.4724 64.8026 14.5928C64.8084 14.7132 64.7656 14.8308 64.684 14.92C64.6022 15.0092 64.4882 15.0625 64.3669 15.0682C63.459 15.1244 62.582 15.4174 61.8246 15.9174C61.0672 16.4174 60.4562 17.1067 60.0532 17.9158C59.8736 18.2914 59.502 19.2399 59.9388 19.958C60.2407 20.4549 60.8914 20.7681 61.9264 20.9156C65.5745 21.4352 69.6377 20.2836 73.3624 17.6731C73.4316 17.6248 73.5128 17.5966 73.5972 17.5914C73.6815 17.5862 73.7657 17.6042 73.8404 17.6436C73.9149 17.6829 73.9771 17.742 74.0199 17.8144C74.0628 17.8867 74.0845 17.9693 74.0829 18.0531C74.0543 19.528 75.4552 20.7499 76.8676 21.3104C77.8943 21.7101 78.9905 21.9052 80.0932 21.8846C81.1956 21.8639 82.2843 21.6279 83.2952 21.1901C83.3501 21.1656 83.4084 21.1521 83.4691 21.1503C83.5297 21.1486 83.5891 21.1587 83.6452 21.18C83.7023 21.2013 83.7538 21.2335 83.7973 21.2745C83.8407 21.3157 83.8762 21.365 83.9002 21.4195C83.9253 21.4742 83.9379 21.5331 83.9402 21.5929C83.9414 21.6526 83.9311 21.712 83.9093 21.7678C83.8876 21.8235 83.8544 21.8745 83.8133 21.9177C83.771 21.9608 83.7218 21.9954 83.6669 22.0195C82.4924 22.5359 81.223 22.8018 79.9393 22.8Z" fill="#181E32"/>
<path d="M84.9759 21.4394C84.8548 21.4453 84.7382 21.4033 84.6488 21.3227C84.5594 21.2423 84.5062 21.1298 84.5005 21.01C84.4948 20.8903 84.5367 20.7731 84.6171 20.6843C84.6986 20.5956 84.8107 20.5425 84.9318 20.5366C84.9635 20.5279 84.9906 20.5078 85.0087 20.4802C85.0189 20.4679 85.0269 20.4537 85.0314 20.4384C85.0359 20.4231 85.0382 20.4071 85.037 20.391C85.0099 20.2741 85.0314 20.1516 85.0959 20.0503C85.1593 19.9491 85.2612 19.8773 85.3789 19.851C85.4366 19.838 85.4966 19.8365 85.5555 19.8465C85.6143 19.8567 85.6709 19.8782 85.7207 19.9098C85.8226 19.9739 85.8939 20.0755 85.9211 20.1924C85.9483 20.3334 85.946 20.4785 85.9154 20.6187C85.8849 20.7589 85.8249 20.8914 85.7411 21.0078C85.6562 21.1242 85.5487 21.2221 85.4253 21.2953C85.3008 21.3686 85.1638 21.4157 85.0212 21.4338C85.0053 21.4368 84.9906 21.4386 84.9759 21.4394Z" fill="#181E32"/>
<path d="M86.5365 19.76C86.4879 19.7602 86.4393 19.7525 86.3919 19.737C86.3352 19.7181 86.2808 19.6881 86.2357 19.6488C86.1894 19.6094 86.1512 19.5614 86.1234 19.5075C86.0968 19.4536 86.0794 19.3949 86.076 19.3348C86.0713 19.2746 86.0783 19.214 86.0968 19.1567C86.3791 18.3017 86.3606 17.3768 86.0412 16.5343C85.5784 15.3093 84.5369 14.3831 83.5799 13.6396C83.3878 13.4891 83.1228 13.2834 83.021 12.9386C82.8995 12.5272 83.0777 12.1584 83.2084 11.8883L83.2165 11.8734C83.6239 11.0267 83.8484 10.105 83.875 9.16715C83.8773 9.10682 83.8912 9.0473 83.9155 8.99225C83.9409 8.93709 83.9757 8.88733 84.0196 8.84585C84.0648 8.80425 84.1157 8.77185 84.1735 8.75024C84.2302 8.72875 84.2904 8.71853 84.3506 8.72013C84.4119 8.72174 84.4721 8.7353 84.5276 8.7599C84.5832 8.7846 84.633 8.81976 84.6746 8.86366C84.7163 8.90756 84.7498 8.95916 84.7707 9.01558C84.7926 9.072 84.8031 9.13211 84.8007 9.19244C84.7695 10.2588 84.5138 11.3069 84.0509 12.2698L84.0428 12.2859C83.9814 12.4146 83.8877 12.6065 83.9097 12.6801C83.9317 12.7536 84.0682 12.8502 84.1516 12.9099C85.1467 13.6844 86.3606 14.7589 86.908 16.2057C87.3003 17.2444 87.3234 18.3842 86.9763 19.4382C86.9473 19.5313 86.8895 19.6125 86.8096 19.6703C86.7309 19.7282 86.6349 19.7596 86.5365 19.76Z" fill="#181E32"/>
</g>
<defs>
<clipPath id="clip0_407_8453">
<rect width="160" height="160" fill="white" transform="translate(0.5)"/>
</clipPath>
</defs>
</svg>
