<svg width="167" height="40" viewBox="0 0 167 40" fill="none" xmlns="http://www.w3.org/2000/svg">
<g clip-path="url(#clip0_407_10121)">
<path d="M22.8159 20.0625C22.8385 19.2019 22.5961 18.3355 22.0774 17.6003L15.4193 8.26997L10.6272 1.47601C9.1727 -0.513156 6.21855 -0.473258 4.81476 1.55011L0.355339 7.96789C-0.123865 8.65755 -0.118228 9.57519 0.355339 10.2591L7.1826 20.0112L0.372252 29.7519C-0.106952 30.4358 -0.11259 31.3535 0.372252 32.0431L4.82604 38.4609C6.22983 40.4843 9.18398 40.5242 10.6385 38.535L16.6032 30.0654L22.0661 22.4051C22.4664 21.8465 22.6976 21.2081 22.7765 20.5584C22.7878 20.4672 22.7934 20.3703 22.799 20.2791C22.799 20.205 22.8159 20.1309 22.8159 20.0625Z" fill="url(#paint0_linear_407_10121)"/>
<path d="M14.4497 19.9429C14.4271 20.8035 14.6696 21.6699 15.1882 22.4051L21.8463 31.7354L26.6328 38.5294C28.0873 40.5186 31.0414 40.4787 32.4452 38.4553L36.899 32.0375C37.3782 31.3479 37.3726 30.4302 36.899 29.7463L30.0718 19.9942L36.8934 10.2535C37.3726 9.56957 37.3782 8.65193 36.8934 7.96228L32.4396 1.54449C31.0358 -0.478874 28.0816 -0.518771 26.6271 1.4704L20.6624 9.94005L15.1995 17.6003C14.7992 18.1589 14.5681 18.7973 14.4891 19.447C14.4779 19.5382 14.4722 19.6351 14.4666 19.7263C14.4666 19.8004 14.4497 19.8745 14.4497 19.9429Z" fill="url(#paint1_linear_407_10121)"/>
<path d="M15.7071 23.032C13.8636 20.8833 14.0665 18.9112 16.113 16.3806L26.5428 1.6812C27.986 -0.55875 31.1262 -0.535951 32.53 1.58431L33.9845 3.67038L23.3913 18.2728C22.6584 19.2817 22.6415 20.6553 23.3518 21.6812L33.7365 36.7396L32.3327 38.7117C30.6921 40.6211 27.9127 40.319 26.5202 38.3697L15.7071 23.032Z" fill="url(#paint2_linear_407_10121)"/>
<path d="M21.6204 16.9677C23.464 19.1164 23.261 21.0885 21.2145 23.6191L10.7904 38.3185C9.34715 40.5584 6.20695 40.5356 4.80316 38.4154L3.34863 36.3293L13.9419 21.7269C14.6748 20.718 14.6917 19.3444 13.9813 18.3185L3.59105 3.26007L4.99484 1.288C6.63541 -0.621381 9.4148 -0.3193 10.8073 1.62997L21.6204 16.9677Z" fill="url(#paint3_linear_407_10121)"/>
<path d="M53.1016 31.2169H49.2285V19.014C49.2285 15.0642 51.478 12.9724 55.8528 12.9724C58.0741 12.9724 59.6075 13.5994 60.5265 14.8875C61.5018 13.5994 63.0409 12.9724 65.1719 12.9724C69.699 12.9724 71.7399 14.9445 71.7399 19.014V31.2169H67.8668V19.014C67.8668 17.3383 67.303 16.6487 65.1776 16.6487C62.8999 16.6487 62.3644 17.3041 62.3644 19.014V31.2169H58.6097V19.014C58.6097 17.3383 58.0177 16.6487 55.8585 16.6487C53.6992 16.6487 53.1073 17.3383 53.1073 19.014V31.2169H53.1016Z" fill="#28326D"/>
<path d="M77.7442 13.2744V25.4773C77.7442 27.153 78.3925 27.8427 80.9126 27.8427C83.4326 27.8427 84.019 27.1872 84.019 25.4773V13.2744H87.8921V25.4773C87.8921 29.5754 85.7892 31.5189 80.9126 31.5189C76.036 31.5189 73.8711 29.5127 73.8711 25.4773V13.2744H77.7442Z" fill="#28326D"/>
<path d="M103.108 25.9846C103.108 29.7235 101.067 31.5189 96.3312 31.5189C91.5955 31.5189 89.5547 29.752 89.5547 26.1328C89.5547 21.9777 91.8605 20.4217 95.914 20.4217H99.2572V19.0139C99.2572 16.9507 98.1635 16.4434 95.8238 16.4434C93.8393 16.4434 92.3341 16.6201 91.2404 17.0134V13.5138C92.3059 13.1547 93.7548 12.978 95.587 12.978C100.526 12.978 103.102 14.5625 103.102 18.8714V25.9903L103.108 25.9846ZM99.2628 23.7389H95.8633C94.234 23.7389 93.4052 24.4856 93.4052 25.9504C93.4052 27.7173 94.4087 28.0763 96.2748 28.0763C97.1938 28.0763 97.6955 27.9852 98.3157 27.7173C98.9358 27.4494 99.2628 26.7882 99.2628 25.7452V23.7389Z" fill="#28326D"/>
<path d="M105.042 8.48682H108.887V25.8365C108.887 27.364 109.242 27.8428 110.189 27.8428C110.635 27.8428 111.018 27.7858 111.345 27.6661V31.2226C110.9 31.4335 110.251 31.519 109.451 31.519C106.818 31.519 105.042 29.8433 105.042 26.4065V8.48682Z" fill="#28326D"/>
<path d="M112.681 8.48682H116.526V25.8365C116.526 27.364 116.881 27.8428 117.828 27.8428C118.273 27.8428 118.657 27.7858 118.984 27.6661V31.2226C118.538 31.4335 117.89 31.519 117.089 31.519C114.457 31.519 112.681 29.8433 112.681 26.4065V8.48682Z" fill="#28326D"/>
<path d="M120.794 9.18213C121.713 8.25309 123.133 8.25309 124.047 9.18213C124.966 10.1112 124.966 11.5475 124.047 12.4708C123.128 13.3999 121.707 13.3999 120.794 12.4708C119.875 11.5418 119.875 10.1055 120.794 9.18213ZM120.495 31.2169V14.4144H124.34V31.2169H120.495Z" fill="#28326D"/>
<path d="M130.445 31.2169H126.572V19.014C126.572 15.0642 128.822 12.9724 133.197 12.9724C135.418 12.9724 136.957 13.5994 137.87 14.8875C138.846 13.5994 140.385 12.9724 142.516 12.9724C147.043 12.9724 149.084 14.9445 149.084 19.014V31.2169H145.211V19.014C145.211 17.3383 144.647 16.6487 142.516 16.6487C140.238 16.6487 139.702 17.3041 139.702 19.014V31.2169H135.948V19.014C135.948 17.3383 135.356 16.6487 133.197 16.6487C131.037 16.6487 130.445 17.3383 130.445 19.014V31.2169Z" fill="#28326D"/>
<path d="M155.167 13.2744L157.563 18.8088C158.036 19.886 158.155 19.9772 158.775 19.9772C159.395 19.9772 159.513 19.8575 159.987 18.8088L162.383 13.2744H166.408L163.364 20.1824C162.89 21.2596 162.654 21.556 161.943 21.7669C162.625 21.9777 162.828 22.2456 163.336 23.3514L167.006 31.2168H162.896L159.964 24.6965C159.699 24.1265 159.519 23.8016 159.434 23.7104C159.344 23.5907 159.108 23.5337 158.786 23.5337C158.194 23.5337 158.076 23.6249 157.602 24.7022L154.676 31.2225H150.566L154.237 23.3571C154.738 22.2798 154.975 21.9834 155.595 21.7726C154.975 21.5617 154.738 21.2938 154.237 20.1881L151.158 13.2801H155.184L155.167 13.2744Z" fill="#28326D"/>
</g>
<defs>
<linearGradient id="paint0_linear_407_10121" x1="11.518" y1="11.154" x2="10.7459" y2="34.2084" gradientUnits="userSpaceOnUse">
<stop stop-color="#89BFE9"/>
<stop offset="0.16" stop-color="#6C95C3"/>
<stop offset="0.32" stop-color="#5372A4"/>
<stop offset="0.49" stop-color="#3F568B"/>
<stop offset="0.66" stop-color="#324279"/>
<stop offset="0.83" stop-color="#29366E"/>
<stop offset="1" stop-color="#27336B"/>
</linearGradient>
<linearGradient id="paint1_linear_407_10121" x1="25.8548" y1="12.2142" x2="25.8548" y2="35.2863" gradientUnits="userSpaceOnUse">
<stop stop-color="#89BFE9"/>
<stop offset="0.16" stop-color="#6C95C3"/>
<stop offset="0.32" stop-color="#5372A4"/>
<stop offset="0.49" stop-color="#3F568B"/>
<stop offset="0.66" stop-color="#324279"/>
<stop offset="0.83" stop-color="#29366E"/>
<stop offset="1" stop-color="#27336B"/>
</linearGradient>
<linearGradient id="paint2_linear_407_10121" x1="24.2144" y1="13.1033" x2="24.2144" y2="32.8468" gradientUnits="userSpaceOnUse">
<stop stop-color="#FFCC03"/>
<stop offset="1" stop-color="#E95415"/>
</linearGradient>
<linearGradient id="paint3_linear_407_10121" x1="13.2202" y1="12.3909" x2="13.0877" y2="32.1344" gradientUnits="userSpaceOnUse">
<stop stop-color="#FFCC03"/>
<stop offset="1" stop-color="#E95415"/>
</linearGradient>
<clipPath id="clip0_407_10121">
<rect width="167" height="40" fill="white"/>
</clipPath>
</defs>
</svg>
