<svg width="160" height="160" viewBox="0 0 160 160" fill="none" xmlns="http://www.w3.org/2000/svg">
<path d="M127.581 76.036C123.43 60.2061 120.382 44.1074 118.457 27.8558C118.447 27.7891 118.421 27.7259 118.38 27.6725C118.338 27.619 118.285 27.577 118.223 27.5508C118.161 27.5246 118.093 27.5148 118.026 27.5226C117.959 27.5304 117.896 27.5555 117.841 27.5953C116.952 28.223 116.212 29.0383 115.673 29.9838C115.563 29.3798 115.45 28.7759 115.333 28.1718C115.312 28.0794 115.27 27.9933 115.209 27.9209C115.148 27.8484 115.071 27.7918 114.982 27.7559C114.895 27.72 114.8 27.7058 114.706 27.7145C114.612 27.7232 114.522 27.7546 114.443 27.806C112.278 29.1457 110.745 31.3009 110.907 34.746C110.98 36.3122 111.111 37.866 111.269 39.4142L108.595 31.4651C108.56 31.3687 108.505 31.2813 108.432 31.2093C108.359 31.1372 108.272 31.0825 108.175 31.0493C108.079 31.016 107.976 31.0049 107.874 31.0169C107.773 31.0289 107.676 31.0636 107.59 31.1186C106.15 32.0336 105.052 33.4413 105.161 36.8785C105.223 38.84 109.814 53.5445 110.319 54.5456C111.338 56.566 114.182 53.9137 115.889 53.3927C115.926 54.5184 115.995 55.6453 116.08 56.7664L111.214 57.8876C111.251 57.8876 112.109 63.361 112.19 63.8616C112.774 67.4335 113.357 71.0051 113.941 74.5762C114.036 75.1561 113.982 76.3452 114.449 76.7733C114.876 77.1629 115.735 76.8866 116.231 76.822L118.764 76.4743C118.88 76.9372 118.996 77.3999 119.111 77.8628L120.243 77.5298C120.618 78.9613 120.956 80.1345 121.223 80.8876C121.11 81.1628 120.987 81.4448 120.867 81.7313L112.528 84.5037C108.802 92.5501 105.079 100.599 101.362 108.65C100.704 103.159 100.15 97.8367 99.6455 93.6679L91.6097 95.0269C91.1445 98.9137 89.5498 115.823 88.1079 126.271C87.9947 127.119 87.8816 128.024 88.2664 128.79C88.7904 129.838 90.0512 130.293 91.209 130.594L91.2804 130.611C91.054 131.281 90.951 131.97 91.1672 132.625C91.5995 133.958 93.1263 134.584 94.4879 135.035C97.6931 136.098 107.083 138.636 116.19 140.139C119.812 140.737 121.359 138.531 121.651 137.289C122.633 133.098 125.587 110.275 125.881 106.298L126.76 94.3656C126.814 93.6294 126.869 92.8944 126.923 92.1606C127.115 90.4697 127.852 85.1481 128.227 82.2466C128.255 82.0586 128.278 81.8751 128.297 81.6928C128.34 81.3531 128.375 81.0677 128.4 80.8434C128.398 80.7891 128.382 80.7358 128.354 80.6894C128.375 78.9579 127.963 77.4981 127.581 76.036ZM115.881 53.1118C115.857 53.0428 115.835 52.9737 115.811 52.9057H115.874L115.881 53.1118Z" fill="#1B5EC9"/>
<path d="M24.2753 118.303L34.6612 108.975C36.308 107.495 38.0149 105.931 38.7805 103.853C39.6254 101.562 39.1905 99.0124 38.6038 96.6422C37.4665 92.0489 35.7994 87.6018 33.6362 83.3924C32.8762 81.9145 32.0449 80.4378 31.7312 78.8062C31.3993 77.0769 31.6723 75.2955 31.9452 73.5549C33.651 62.6833 35.3571 51.8117 37.0635 40.9401C37.29 39.4679 38.9232 37.7285 40.1589 38.5552C41.6007 31.825 44.6553 31.0991 45.8978 32.3402C45.8978 30.5351 46.6204 28.3211 49.461 28.32C51.4521 28.32 52.8441 30.2327 52.8894 32.3187C54.2372 31.0153 56.6802 31.8487 57.6531 33.4512C58.626 35.0536 58.5592 37.0547 58.4618 38.9277L57.174 63.5565C57.7301 61.3436 59.0372 58.5872 61.2967 58.9066C63.0296 59.1512 64.8078 60.7899 65.2529 62.484C67.6687 71.7566 64.5484 75.3465 68.0448 87.8339C69.7505 93.9288 71.8129 99.9512 72.7609 106.214C73.7089 112.476 72.9252 119.439 68.6428 124.1C65.4205 127.61 60.744 129.292 56.4265 131.301C47.7625 135.339 39.995 141.072 33.5819 148.16C30.0142 137.022 26.4469 125.885 22.8799 114.747L24.2753 118.303Z" fill="#FACBDF"/>
<path d="M55.8071 85.36C55.7806 85.36 55.754 85.3577 55.7279 85.3521C55.6114 85.3306 55.5081 85.264 55.4404 85.1658C55.3729 85.0676 55.3465 84.9468 55.3673 84.8283C55.3673 84.8035 55.7993 82.3451 55.9701 76.7828C56.1164 71.9754 56.3307 68.0079 56.6255 64.6532C56.636 64.5334 56.6931 64.4228 56.7843 64.3456C56.8755 64.2685 56.9932 64.2312 57.1117 64.2418C57.2301 64.2524 57.3395 64.3102 57.4159 64.4024C57.4921 64.4945 57.5291 64.6136 57.5186 64.7333C57.2261 68.0699 57.0129 72.0206 56.8655 76.811C56.6936 82.4546 56.2671 84.8882 56.2492 84.9886C56.2306 85.0936 56.176 85.1884 56.0952 85.2561C56.0144 85.3238 55.9123 85.3611 55.8071 85.36Z" fill="#1B5EC9"/>
<path d="M46.9064 76.8C46.7892 76.8001 46.6765 76.7543 46.5924 76.6725C46.5081 76.5906 46.4589 76.4789 46.4551 76.3613L46.2136 68.5132C46.164 66.8978 46.1121 65.2257 46.2418 63.5751C46.4201 61.3079 46.9425 59.0576 47.4468 56.8867C47.5235 56.558 47.6002 56.2303 47.6724 55.9016C48.8723 50.6561 49.7849 45.3484 50.4061 40.0025C50.9172 35.5904 51.2997 33.4173 52.0883 32.9978C52.1919 32.9525 52.3085 32.9477 52.4153 32.9846C52.522 33.0214 52.6113 33.097 52.6652 33.1967C52.7193 33.2963 52.734 33.4126 52.7068 33.5228C52.6797 33.6329 52.6123 33.7287 52.5182 33.7914C52.4618 33.8401 52.2012 34.1507 51.8762 35.9316C51.6506 37.1696 51.461 38.734 51.3031 40.1034C50.678 45.4826 49.7599 50.8231 48.5524 56.1011C48.4773 56.4315 48.4021 56.7609 48.3268 57.0896C47.8304 59.2277 47.3114 61.4394 47.1433 63.6431C47.0169 65.2461 47.0677 66.891 47.1162 68.4826L47.3576 76.3295C47.3614 76.4497 47.3174 76.5662 47.2356 76.6539C47.1537 76.7414 47.0406 76.7927 46.921 76.7966L46.9064 76.8Z" fill="#1B5EC9"/>
<path d="M40.7734 75.84H40.7417C40.6218 75.8316 40.5103 75.7758 40.4314 75.6849C40.3526 75.5942 40.313 75.4756 40.3214 75.3556C40.702 69.8907 40.5559 66.232 40.4347 63.2926C40.3124 60.2294 40.224 58.0206 40.821 55.5304C42.0818 50.2857 44.5378 38.0434 45.4191 32.2257C45.4371 32.1067 45.5017 31.9998 45.5984 31.9284C45.6952 31.857 45.8163 31.8271 45.9351 31.8451C46.054 31.8632 46.1608 31.9277 46.232 32.0247C46.3033 32.1216 46.3332 32.2429 46.3152 32.3619C45.4282 38.1977 42.9666 50.4785 41.7057 55.7403C41.1393 58.108 41.2243 60.2657 41.3444 63.254C41.4576 66.2161 41.6106 69.9021 41.2254 75.4157C41.2179 75.5306 41.1671 75.6385 41.0831 75.7173C40.9992 75.7961 40.8885 75.84 40.7734 75.84Z" fill="#1B5EC9"/>
<path d="M35.7346 75.04H35.6846C35.6253 75.0334 35.5679 75.0153 35.5156 74.9867C35.4633 74.9582 35.4171 74.9195 35.3799 74.8732C35.3426 74.8267 35.3148 74.7735 35.2983 74.7164C35.2816 74.6592 35.2765 74.5995 35.2831 74.5405C35.5655 72.0033 35.679 69.2153 35.7879 66.5165C35.9648 62.1497 36.1282 58.0258 36.9529 54.7281C37.5655 52.2712 38.2008 48.3225 38.8123 44.5049C39.1378 42.4707 39.4464 40.5495 39.7391 38.9323C39.7498 38.8737 39.7718 38.8179 39.804 38.768C39.8362 38.7179 39.8781 38.6747 39.927 38.6408C39.976 38.607 40.0312 38.5831 40.0895 38.5704C40.1477 38.5577 40.208 38.5566 40.2666 38.5671C40.3254 38.5777 40.3814 38.5997 40.4315 38.6318C40.4817 38.6639 40.525 38.7056 40.5591 38.7544C40.5931 38.8031 40.6171 38.8581 40.6298 38.9162C40.6425 38.9742 40.6437 39.0342 40.633 39.0926C40.3415 40.7031 40.034 42.6188 39.7085 44.6473C39.0925 48.4898 38.4606 52.452 37.8344 54.9462C37.0403 58.1547 36.869 62.2333 36.7 66.5527C36.5865 69.265 36.4731 72.0676 36.1906 74.6364C36.1786 74.7482 36.1251 74.8514 36.0409 74.9259C35.9565 75.0005 35.8473 75.0411 35.7346 75.04Z" fill="#1B5EC9"/>
<path d="M52.3676 40.48C52.2489 40.48 52.135 40.4327 52.0511 40.3484C51.9672 40.2641 51.9199 40.1497 51.9199 40.0305C51.9199 39.9113 51.9672 39.7969 52.0511 39.7127C52.135 39.6284 52.2489 39.5809 52.3676 39.5809C55.5476 39.5809 55.5845 35.3722 55.5845 35.3295C55.5845 35.2104 55.6317 35.096 55.7157 35.0117C55.7996 34.9274 55.9134 34.88 56.0322 34.88C56.151 34.88 56.2649 34.9274 56.3489 35.0117C56.4328 35.096 56.4799 35.2104 56.4799 35.3295C56.4799 37.1108 55.6203 40.48 52.3676 40.48Z" fill="white"/>
<path d="M46.7502 36.96C46.6996 36.96 46.6491 36.96 46.5974 36.96C46.5384 36.9584 46.4803 36.945 46.4264 36.9207C46.3725 36.8963 46.3238 36.8614 46.2832 36.8181C46.2427 36.7747 46.2109 36.7236 46.1899 36.6678C46.1687 36.6121 46.1587 36.5526 46.1603 36.493C46.162 36.4333 46.1753 36.3746 46.1993 36.32C46.2234 36.2655 46.2578 36.2163 46.3008 36.1753C46.3436 36.1342 46.394 36.1021 46.4492 36.0808C46.5044 36.0595 46.5631 36.0494 46.6221 36.0509C48.0176 36.0896 49.6682 35.6044 50.0592 31.4534C50.0649 31.3937 50.082 31.3358 50.1098 31.2827C50.1376 31.2298 50.1754 31.1828 50.2212 31.1447C50.2668 31.1065 50.3195 31.0777 50.3762 31.0601C50.4328 31.0425 50.4924 31.0364 50.5514 31.0421C50.6105 31.0477 50.6678 31.0651 50.7201 31.0932C50.7725 31.1213 50.8189 31.1595 50.8567 31.2057C50.8945 31.2519 50.9228 31.3052 50.9403 31.3625C50.9577 31.4199 50.9637 31.4801 50.9581 31.5398C50.6109 35.1851 49.2323 36.96 46.7502 36.96Z" fill="white"/>
<path d="M41.8342 40.32C41.7636 40.32 41.6931 40.32 41.6236 40.312C41.5639 40.3077 41.5055 40.2916 41.452 40.2647C41.3984 40.2378 41.3506 40.2005 41.3115 40.1552C41.2322 40.0634 41.1926 39.9439 41.2014 39.823C41.2057 39.7632 41.2219 39.7047 41.2487 39.6511C41.2756 39.5974 41.3128 39.5495 41.3581 39.5103C41.4034 39.471 41.4561 39.4411 41.513 39.4222C41.5698 39.4033 41.6299 39.3958 41.6896 39.4001C42.0049 39.4229 42.302 39.4445 42.7765 38.7788C43.3365 37.9957 43.3843 36.2095 43.4025 35.5369C43.4025 35.4515 43.4025 35.3774 43.4093 35.3181C43.4117 35.2582 43.426 35.1994 43.451 35.145C43.476 35.0906 43.5117 35.0417 43.5556 35.0011C43.5995 34.9604 43.6511 34.9288 43.7072 34.9081C43.7634 34.8874 43.823 34.878 43.8828 34.8804C43.9427 34.8828 44.0014 34.8969 44.0557 34.9221C44.11 34.9472 44.1588 34.9828 44.1994 35.0268C44.2399 35.0708 44.2715 35.1225 44.2922 35.1787C44.3129 35.235 44.3222 35.2947 44.3198 35.3546C44.3198 35.4116 44.3198 35.4811 44.313 35.562C44.2891 36.45 44.239 38.2978 43.5163 39.3089C42.92 40.1467 42.3577 40.32 41.8342 40.32Z" fill="white"/>
<path d="M36.8782 44.64C36.7515 44.64 36.63 44.5927 36.5404 44.5086C36.4508 44.4246 36.4004 44.3106 36.4004 44.1916C36.4004 44.0727 36.4508 43.9587 36.5404 43.8745C36.63 43.7904 36.7515 43.7432 36.8782 43.7432C36.9774 43.7432 37.0502 43.6738 37.2366 43.4518C37.3486 43.3068 37.4785 43.1747 37.6236 43.0584C37.7227 42.984 37.849 42.9496 37.9751 42.9627C38.1011 42.976 38.2164 43.0355 38.2956 43.1284C38.3748 43.2213 38.4115 43.3399 38.3975 43.4582C38.3835 43.5765 38.32 43.6846 38.2209 43.7589C38.135 43.8325 38.0577 43.9143 37.9904 44.0033C37.7777 44.2566 37.4648 44.64 36.8782 44.64Z" fill="white"/>
<path d="M58.7267 70.079C58.6061 70.0871 58.4873 70.0474 58.3962 69.9688C58.3051 69.8903 58.2494 69.7792 58.2413 69.66C58.2332 69.5409 58.2732 69.4234 58.3528 69.3334C58.4322 69.2436 58.5448 69.1885 58.6653 69.1804C59.7248 69.0367 60.5161 68.1382 60.9026 67.3452C61.3778 66.3692 61.5153 65.2438 61.6472 64.1566C61.6623 64.0374 61.7247 63.9291 61.8207 63.8554C61.8681 63.8189 61.9224 63.7919 61.9805 63.7762C62.0385 63.7605 62.0991 63.7561 62.1588 63.7635C62.2186 63.7709 62.2762 63.7898 62.3285 63.8192C62.3808 63.8485 62.4267 63.8878 62.4637 63.9348C62.5006 63.9817 62.5279 64.0354 62.5438 64.0927C62.5598 64.1501 62.5642 64.21 62.5567 64.2689C62.4214 65.3763 62.2679 66.6275 61.7268 67.7406C61.0936 69.0401 59.9977 69.9127 58.7949 70.0767C58.7723 70.0787 58.7495 70.0795 58.7267 70.079Z" fill="white"/>
<path d="M26.2599 110.423C25.1104 110.784 24.2077 111.672 23.3095 112.486C20.4539 115.076 17.1943 117.185 13.6586 118.731C13.0663 118.99 12.4275 119.264 12.0854 119.821C11.4206 120.905 12.2361 122.27 12.9836 123.297C19.5459 132.301 22.9505 143.209 27.2748 153.523C27.5149 154.096 27.7878 154.703 28.31 155.025C28.9023 155.391 29.6555 155.294 30.3351 155.157C35.4612 154.112 40.1696 151.597 43.8821 147.921C45.0668 146.747 46.204 145.311 46.2391 143.629C46.2674 142.219 45.5131 140.931 44.7973 139.724C42.0903 135.166 39.5609 130.504 37.2088 125.738C36.0706 123.428 34.7262 121.057 33.9039 118.608C33.6423 117.829 33.6139 117.049 33.5041 116.244C33.3738 115.282 32.9627 114.428 32.4508 113.616C31.1653 111.571 28.8004 109.626 26.2599 110.423Z" fill="#FF5400"/>
<path d="M12.9344 123.76C12.8345 123.76 12.7374 123.727 12.6581 123.666C12.5789 123.605 12.5219 123.52 12.496 123.424C12.4701 123.327 12.4768 123.225 12.5149 123.132C12.5531 123.04 12.6206 122.962 12.707 122.912C19.1005 119.189 25.1165 114.854 30.6706 109.966C30.7149 109.924 30.7673 109.891 30.8248 109.869C30.8822 109.847 30.9433 109.838 31.0047 109.84C31.066 109.843 31.1263 109.857 31.1816 109.885C31.237 109.911 31.2865 109.948 31.3271 109.994C31.3677 110.04 31.3985 110.094 31.4177 110.152C31.4368 110.211 31.444 110.272 31.4388 110.333C31.4335 110.395 31.416 110.454 31.3871 110.508C31.3582 110.562 31.3188 110.61 31.2709 110.648C25.6716 115.574 19.6067 119.944 13.1618 123.697C13.0927 123.737 13.0143 123.759 12.9344 123.76Z" fill="black"/>
<path d="M17.7337 126.48C17.637 126.48 17.5428 126.449 17.4649 126.391C17.387 126.334 17.3296 126.252 17.3008 126.159C17.2721 126.067 17.2735 125.966 17.3051 125.875C17.3366 125.782 17.3965 125.704 17.476 125.648C22.8754 121.916 28.445 118.29 34.0294 114.867C34.1323 114.804 34.2558 114.784 34.3729 114.813C34.4899 114.841 34.5909 114.916 34.6537 115.018C34.7165 115.122 34.7359 115.247 34.7075 115.364C34.6793 115.482 34.6056 115.584 34.5028 115.646C28.9308 119.062 23.3794 122.679 17.9902 126.4C17.9148 126.453 17.8254 126.481 17.7337 126.48Z" fill="black"/>
<path d="M17.7344 133.2C17.6327 133.2 17.5339 133.167 17.4538 133.104C17.3738 133.042 17.3171 132.954 17.2931 132.856C17.269 132.756 17.279 132.652 17.3213 132.561C17.3636 132.468 17.4359 132.393 17.5263 132.346C23.866 129.072 30.1447 125.484 36.1858 121.67C36.2872 121.605 36.4099 121.585 36.527 121.611C36.644 121.637 36.7459 121.708 36.81 121.81C36.8743 121.911 36.8955 122.033 36.8693 122.151C36.843 122.267 36.7713 122.369 36.6698 122.433C30.6049 126.261 24.3037 129.867 17.9402 133.149C17.8767 133.182 17.8061 133.2 17.7344 133.2Z" fill="black"/>
<path d="M19.7335 138.08C19.6291 138.08 19.5278 138.045 19.4467 137.978C19.3657 137.913 19.3101 137.821 19.2893 137.719C19.2685 137.616 19.2839 137.51 19.3329 137.418C19.3817 137.325 19.4611 137.253 19.5574 137.213C25.5906 134.667 31.343 131.501 36.722 127.767C36.7707 127.732 36.8259 127.707 36.8845 127.693C36.9431 127.678 37.0039 127.676 37.0634 127.686C37.1228 127.696 37.1797 127.718 37.2306 127.751C37.2815 127.782 37.3254 127.825 37.3597 127.875C37.394 127.924 37.4181 127.979 37.4306 128.038C37.443 128.098 37.4435 128.158 37.432 128.217C37.4205 128.276 37.3974 128.333 37.3639 128.382C37.3303 128.433 37.2871 128.476 37.2367 128.508C31.8062 132.278 25.999 135.473 19.9084 138.044C19.8534 138.068 19.7938 138.08 19.7335 138.08Z" fill="black"/>
<path d="M25.2492 142.88C25.149 142.88 25.0516 142.846 24.9726 142.784C24.8936 142.722 24.8375 142.637 24.8132 142.539C24.7889 142.441 24.7978 142.338 24.8385 142.247C24.8793 142.154 24.9495 142.079 25.0379 142.032C30.546 139.102 36.017 135.938 41.3115 132.628C41.3617 132.597 41.4174 132.575 41.4758 132.566C41.534 132.556 41.5937 132.558 41.6512 132.572C41.7088 132.584 41.7632 132.609 41.8113 132.644C41.8593 132.678 41.9002 132.722 41.9315 132.772C41.9628 132.822 41.984 132.878 41.9936 132.937C42.0034 132.994 42.0015 133.055 41.9882 133.113C41.975 133.17 41.9505 133.224 41.9161 133.273C41.8818 133.321 41.8383 133.362 41.7882 133.393C36.4756 136.714 30.9822 139.889 25.4595 142.828C25.3947 142.862 25.3225 142.88 25.2492 142.88Z" fill="black"/>
<path d="M26.8511 149.2C26.7497 149.2 26.6512 149.166 26.5717 149.102C26.4921 149.039 26.4361 148.95 26.4126 148.852C26.3892 148.752 26.3996 148.648 26.4424 148.556C26.485 148.463 26.5576 148.388 26.648 148.341C32.965 145.135 39.1121 141.6 45.0648 137.752C45.1655 137.687 45.2878 137.665 45.4047 137.691C45.5217 137.716 45.6238 137.787 45.6885 137.888C45.7534 137.989 45.7755 138.113 45.7501 138.23C45.7247 138.347 45.6539 138.451 45.5532 138.515C39.5741 142.381 33.3995 145.931 27.0541 149.151C26.9912 149.183 26.9217 149.2 26.8511 149.2Z" fill="black"/>
<path d="M31.1738 152C31.0664 152 30.9622 151.963 30.8801 151.892C30.798 151.823 30.7434 151.727 30.7258 151.621C30.7083 151.515 30.729 151.407 30.7843 151.314C30.8396 151.222 30.926 151.152 31.0278 151.118C36.3926 149.307 41.4408 146.669 45.9888 143.296C46.0365 143.258 46.0909 143.231 46.1492 143.216C46.2074 143.2 46.2682 143.196 46.328 143.204C46.3878 143.213 46.4453 143.232 46.4972 143.263C46.5491 143.294 46.5944 143.335 46.6303 143.383C46.6663 143.431 46.6923 143.487 46.7066 143.545C46.721 143.604 46.7236 143.665 46.7141 143.725C46.7047 143.784 46.6834 143.841 46.6516 143.892C46.6198 143.943 46.5781 143.987 46.5289 144.023C41.9068 147.451 36.7766 150.135 31.3244 151.976C31.2758 151.992 31.225 152 31.1738 152Z" fill="black"/>
<path d="M119.565 156C118.35 156 117.414 155.066 116.911 154.573L116.776 154.44C115.973 153.659 115.304 152.99 114.667 152.344C112.683 150.345 111.117 148.767 107.295 145.81C107.25 145.776 107.153 145.713 107.05 145.647C106.322 145.177 104.809 144.199 104.59 142.617C104.363 140.722 105.455 139.239 106.667 137.92C107.412 137.108 108.208 136.33 108.977 135.576C109.949 134.626 110.952 133.646 111.845 132.603C112.608 131.714 113.359 130.786 114.085 129.888C114.52 129.35 114.969 128.794 115.419 128.25C116.619 126.797 118.897 124.324 120.667 124.099C122.458 123.872 124.527 125.706 127.391 128.245C129.339 129.972 131.547 131.931 134.11 133.61L134.123 133.619C135.41 134.527 136.096 135.493 136.22 136.571C136.364 137.82 135.726 139.228 134.271 140.864C133.631 141.584 132.775 142.644 131.786 143.871C129.068 147.236 125.351 151.846 121.53 155.164C120.821 155.775 120.16 156 119.565 156ZM120.965 124.988C120.902 124.988 120.841 124.993 120.781 124.999C119.73 125.133 117.987 126.565 116.116 128.829C115.67 129.369 115.222 129.923 114.788 130.46C114.058 131.369 113.304 132.296 112.531 133.195C111.613 134.265 110.595 135.262 109.61 136.226C108.849 136.97 108.062 137.741 107.333 138.535C106.268 139.695 105.306 140.978 105.487 142.5C105.649 143.661 106.927 144.486 107.54 144.884C107.67 144.968 107.772 145.035 107.847 145.092C111.717 148.084 113.302 149.682 115.31 151.704C115.949 152.348 116.61 153.014 117.407 153.789L117.548 153.929C118.537 154.909 119.54 155.689 120.936 154.475C124.697 151.21 128.387 146.641 131.081 143.298C132.079 142.061 132.941 140.994 133.595 140.257C134.868 138.824 135.432 137.652 135.32 136.672C135.228 135.877 134.669 135.118 133.608 134.367C130.992 132.653 128.76 130.674 126.791 128.927C124.413 126.819 122.349 124.988 120.962 124.988H120.965Z" fill="black"/>
<path d="M119.824 160C119.247 160 118.813 159.73 118.539 159.56C118.464 159.51 118.386 159.466 118.304 159.428C118.191 159.402 117.976 159.347 115.427 156.911C114.663 156.18 112.848 154.427 112.531 153.932C111.035 151.611 112.077 150.624 114.603 148.238C116.611 146.34 119.645 143.477 123.67 138.128C128.001 132.377 130.564 129.957 132.516 129.773C132.813 129.739 133.113 129.771 133.398 129.864C133.681 129.958 133.942 130.112 134.161 130.316C135.56 131.586 137.028 132.776 138.559 133.882C140.416 135.254 141.348 135.943 140.949 137.606C140.382 139.986 138.415 141.888 135.442 144.775C134.069 146.108 132.515 147.618 130.767 149.487C130.096 150.206 129.251 151.212 128.355 152.28C125.937 155.161 122.927 158.747 120.73 159.784C120.448 159.923 120.138 159.997 119.824 160ZM118.577 158.564C118.731 158.622 118.877 158.698 119.014 158.791C119.39 159.024 119.745 159.244 120.34 158.964C122.357 158.013 125.295 154.512 127.656 151.697C128.563 150.622 129.413 149.605 130.1 148.869C131.864 146.983 133.426 145.469 134.805 144.125C137.665 141.348 139.555 139.514 140.063 137.395C140.314 136.352 139.92 136.019 138.022 134.613C136.466 133.488 134.973 132.276 133.551 130.986C133.425 130.867 133.275 130.778 133.111 130.723C132.947 130.669 132.773 130.653 132.602 130.674C130.52 130.87 127.122 135.052 124.396 138.672C120.324 144.077 117.258 146.976 115.228 148.895C112.636 151.346 112.236 151.798 113.294 153.441C113.683 154.046 117.961 158.116 118.58 158.57L118.577 158.564Z" fill="black"/>
<path d="M29.7852 30.24C29.6959 30.2401 29.6084 30.2142 29.5338 30.1653C25.7797 27.6835 24.0199 25.958 22.1576 24.1318C20.5536 22.5581 18.8938 20.93 15.7928 18.6633C15.7433 18.6287 15.7013 18.5845 15.6691 18.5335C15.637 18.4825 15.6154 18.4256 15.6056 18.3661C15.5958 18.3067 15.598 18.246 15.6121 18.1874C15.6262 18.1288 15.6519 18.0737 15.6876 18.0251C15.7235 17.9765 15.7686 17.9356 15.8205 17.9045C15.8724 17.8736 15.9299 17.8532 15.9899 17.8446C16.0497 17.836 16.1107 17.8394 16.1693 17.8546C16.2279 17.8698 16.2828 17.8965 16.3308 17.9331C19.4854 20.2393 21.169 21.8901 22.7969 23.4876C24.6262 25.2821 26.3542 26.977 30.0366 29.4101C30.1179 29.4639 30.1796 29.5423 30.2127 29.6337C30.2458 29.7252 30.2484 29.8248 30.2202 29.9178C30.192 30.0108 30.1346 30.0924 30.0562 30.1504C29.9779 30.2084 29.8829 30.2398 29.7852 30.24Z" fill="#1B5EC9"/>
<path d="M23.8668 35.6C23.8231 35.6001 23.7795 35.594 23.7374 35.5819C21.9742 35.0626 20.316 34.2386 18.838 33.1476C18.7876 33.1133 18.7446 33.0691 18.7115 33.0178C18.6786 32.9664 18.6563 32.909 18.646 32.849C18.6358 32.7888 18.6379 32.7273 18.6521 32.6681C18.6662 32.6087 18.6922 32.5529 18.7285 32.5039C18.7648 32.4549 18.8106 32.4137 18.8633 32.3827C18.9158 32.3518 18.9741 32.3318 19.0348 32.3238C19.0952 32.3159 19.1569 32.3203 19.2157 32.3366C19.2744 32.3531 19.3294 32.3812 19.377 32.4192C20.7696 33.4467 22.3318 34.2227 23.9928 34.7119C24.0979 34.7425 24.1882 34.8098 24.2475 34.9017C24.3066 34.9934 24.3306 35.1034 24.315 35.2115C24.2994 35.3195 24.2453 35.4183 24.1626 35.4897C24.0797 35.5611 23.9739 35.6002 23.8645 35.6H23.8668Z" fill="#1B5EC9"/>
<path d="M18.9509 56.7144C18.9286 56.7155 18.9062 56.7155 18.8838 56.7144L6.0854 54.8845C6.02463 54.8781 5.9658 54.8597 5.91243 54.8307C5.85906 54.8015 5.81218 54.7621 5.77474 54.715C5.73741 54.6677 5.71011 54.6137 5.69463 54.5561C5.67904 54.4984 5.67562 54.4383 5.6845 54.3793C5.69338 54.3203 5.71443 54.2636 5.74629 54.2127C5.77815 54.1618 5.82014 54.1177 5.86987 54.083C5.9196 54.0482 5.97604 54.0236 6.03578 54.0106C6.09552 53.9977 6.15731 53.9966 6.2174 54.0073L19.0158 55.8317C19.1365 55.8401 19.2489 55.8949 19.3281 55.984C19.4075 56.0731 19.4472 56.1893 19.4385 56.3069C19.43 56.4245 19.3738 56.5341 19.2823 56.6113C19.1909 56.6886 19.0716 56.7273 18.9509 56.7189V56.7144Z" fill="#1B5EC9"/>
<path d="M13.9676 74.32C13.8637 74.3198 13.7631 74.2833 13.6829 74.2168C13.6027 74.1503 13.5479 74.058 13.5279 73.9554C13.5079 73.8529 13.5239 73.7466 13.5732 73.6546C13.6224 73.5626 13.7019 73.4905 13.798 73.4508L18.806 71.3998C18.8612 71.3749 18.9207 71.3613 18.9811 71.3601C19.0415 71.3589 19.1016 71.3699 19.1577 71.3926C19.2137 71.4152 19.2647 71.4489 19.3075 71.4918C19.3503 71.5347 19.3841 71.5859 19.4067 71.6422C19.4293 71.6984 19.4406 71.7588 19.4395 71.8195C19.4384 71.8803 19.4252 71.9401 19.4006 71.9955C19.376 72.051 19.3404 72.1009 19.2961 72.1423C19.2519 72.1837 19.1998 72.2156 19.143 72.2362L14.135 74.2839C14.0821 74.3067 14.0252 74.3189 13.9676 74.32Z" fill="#1B5EC9"/>
<path d="M57.0702 18.72C56.985 18.7202 56.9013 18.6964 56.8291 18.6512C56.7568 18.6061 56.6987 18.5415 56.6616 18.4649C54.6095 14.203 51.2285 7.38752 50.4204 6.2326C50.3233 6.20765 50.2372 6.15109 50.1758 6.07206C50.1143 5.99304 50.0809 5.89583 50.0808 5.79569C50.0746 5.68133 50.1086 5.56844 50.1773 5.47654C50.2461 5.38475 50.3449 5.31984 50.4566 5.29331C50.8494 5.20412 51.0791 5.57668 51.3451 6.00794C51.5455 6.33421 51.8171 6.81514 52.1533 7.43833C52.7124 8.4781 53.4606 9.93332 54.3774 11.7634C55.9349 14.8759 57.4596 18.0415 57.4754 18.0731C57.5012 18.1266 57.5162 18.1848 57.5194 18.244C57.5226 18.3033 57.5141 18.3626 57.4944 18.4186C57.4746 18.4746 57.4439 18.5262 57.4042 18.5703C57.3645 18.6144 57.3164 18.6503 57.2626 18.676C57.2027 18.705 57.1369 18.7201 57.0702 18.72Z" fill="#1B5EC9"/>
<path d="M76.6513 15.76C76.5342 15.7605 76.4211 15.718 76.3347 15.6411C76.2482 15.5643 76.1947 15.4587 76.1846 15.3452L75.6013 8.81408C75.5907 8.69384 75.6297 8.57439 75.7096 8.48214C75.7895 8.38978 75.9039 8.3321 76.0277 8.32167C76.1515 8.31136 76.2745 8.3491 76.3696 8.42684C76.4646 8.50447 76.524 8.61564 76.5346 8.73589L77.118 15.2682C77.1283 15.3877 77.0895 15.5065 77.0098 15.5983C76.9302 15.69 76.8164 15.7474 76.6933 15.7577L76.6513 15.76Z" fill="#1B5EC9"/>
<path d="M95.7338 17.6C95.6688 17.6007 95.6049 17.5872 95.5455 17.5605C95.4861 17.5338 95.4334 17.4944 95.3909 17.4452C95.3483 17.396 95.3169 17.338 95.299 17.2753C95.2799 17.2125 95.2754 17.1466 95.2855 17.0819C95.4996 15.652 96.9508 9.06815 98.0155 4.26716C98.3696 2.65853 98.6767 1.26937 98.8739 0.356457C98.8986 0.239147 98.9692 0.136768 99.0689 0.0719482C99.1687 0.00701492 99.2908 -0.0151555 99.4074 0.0102975C99.5228 0.0358635 99.6248 0.106907 99.6887 0.207926C99.7537 0.308833 99.775 0.43146 99.7503 0.54877C99.552 1.46394 99.2449 2.85424 98.8896 4.46286C97.8328 9.2548 96.3849 15.8171 96.1798 17.2142C96.163 17.322 96.1092 17.4203 96.0274 17.4912C95.9456 17.562 95.8414 17.6007 95.7338 17.6Z" fill="#1B5EC9"/>
<path d="M122.693 19.04C122.633 19.0399 122.573 19.028 122.518 19.0049C122.407 18.9583 122.319 18.8698 122.274 18.7586C122.228 18.6476 122.229 18.523 122.276 18.4122C123.271 16.0295 124.599 13.7997 126.219 11.7891C126.254 11.739 126.301 11.6969 126.353 11.6651C126.406 11.6332 126.464 11.6126 126.525 11.6042C126.586 11.5958 126.649 11.6 126.708 11.6164C126.768 11.6329 126.823 11.6612 126.871 11.6997C126.918 11.7384 126.958 11.7863 126.987 11.8407C127.016 11.8951 127.034 11.9547 127.038 12.0161C127.044 12.0775 127.036 12.1393 127.017 12.1976C126.997 12.256 126.966 12.3098 126.925 12.3557C125.358 14.3 124.074 16.4562 123.112 18.7601C123.077 18.8429 123.019 18.9139 122.944 18.9636C122.87 19.0135 122.782 19.04 122.693 19.04Z" fill="#1B5EC9"/>
<path d="M125.82 26.24C125.731 26.241 125.644 26.2163 125.569 26.1685C125.494 26.1209 125.436 26.0525 125.4 25.9718C125.364 25.891 125.352 25.8014 125.366 25.7141C125.38 25.6266 125.42 25.5453 125.48 25.4801L137.447 12.3947C137.487 12.3492 137.534 12.3122 137.588 12.2858C137.643 12.2593 137.702 12.244 137.762 12.2407C137.823 12.2374 137.883 12.2461 137.94 12.2664C137.996 12.2867 138.049 12.3182 138.093 12.359C138.138 12.3998 138.173 12.449 138.199 12.5039C138.224 12.5588 138.238 12.6181 138.24 12.6784C138.242 12.7389 138.232 12.799 138.211 12.8555C138.189 12.9118 138.156 12.9634 138.115 13.0071L126.154 26.0925C126.111 26.1389 126.059 26.176 126.002 26.2014C125.944 26.2268 125.882 26.24 125.82 26.24Z" fill="#1B5EC9"/>
<path d="M139.035 39.8395C138.975 39.8423 138.915 39.8335 138.86 39.8139C138.804 39.7942 138.752 39.7641 138.708 39.725C138.619 39.646 138.566 39.5359 138.56 39.4188C138.553 39.3016 138.597 39.1871 138.677 39.1003C138.759 39.0135 138.871 38.9616 138.992 38.9561L147.421 38.162C147.541 38.1508 147.66 38.1864 147.754 38.2613C147.847 38.3362 147.906 38.4441 147.918 38.5613C147.929 38.6784 147.893 38.7953 147.816 38.886C147.738 38.9769 147.628 39.0342 147.508 39.0455L139.079 39.8384L139.035 39.8395Z" fill="#1B5EC9"/>
<path d="M153.838 61.5957C153.819 61.5969 153.801 61.5969 153.783 61.5957L139.275 59.785C139.215 59.7775 139.159 59.7584 139.107 59.7289C139.056 59.6994 139.011 59.66 138.974 59.6128C138.938 59.5657 138.912 59.5118 138.896 59.4543C138.88 59.3967 138.876 59.3367 138.884 59.2775C138.89 59.2184 138.91 59.1612 138.939 59.1094C138.968 59.0575 139.008 59.012 139.054 58.9754C139.101 58.9389 139.154 58.912 139.212 58.8962C139.268 58.8804 139.328 58.8761 139.388 58.8836L153.896 60.6909C154.015 60.6983 154.127 60.7533 154.206 60.8436C154.286 60.934 154.327 61.0524 154.319 61.1729C154.312 61.2933 154.257 61.4058 154.168 61.4859C154.078 61.5658 153.96 61.6065 153.841 61.5991L153.838 61.5957Z" fill="#1B5EC9"/>
<path d="M144.351 71.68C144.301 71.68 144.251 71.6717 144.205 71.6552C142.644 71.1152 139.955 70.2618 139.347 70.2618H139.332C139.212 70.2625 139.098 70.2157 139.014 70.1318C138.928 70.0477 138.881 69.9333 138.88 69.8137C138.879 69.6941 138.926 69.5791 139.009 69.494C139.093 69.4089 139.207 69.3607 139.327 69.36H139.34C140.304 69.36 144.069 70.6542 144.498 70.803C144.598 70.8378 144.682 70.9072 144.737 70.999C144.791 71.0908 144.811 71.1988 144.793 71.3039C144.776 71.4091 144.722 71.5046 144.641 71.5735C144.56 71.6422 144.457 71.68 144.351 71.68Z" fill="#1B5EC9"/>
<path d="M35.4543 81.76C35.3848 81.76 35.3163 81.7446 35.2537 81.7139C35.191 81.6843 35.1358 81.6394 35.092 81.585C34.9965 81.4691 34.8732 81.3792 34.734 81.3248C34.5948 81.2704 34.4441 81.2526 34.2963 81.2739C34.1747 81.2928 34.0506 81.2621 33.9511 81.1888C33.8517 81.1154 33.785 81.0043 33.7656 80.8813C33.7462 80.7571 33.7757 80.6317 33.8477 80.53C33.9196 80.4283 34.0281 80.3597 34.1495 80.3396C34.4591 80.2935 34.7753 80.329 35.0674 80.4425C35.3596 80.5561 35.6176 80.7453 35.8166 80.9901C35.8718 81.0599 35.9064 81.1438 35.9166 81.2325C35.9268 81.3212 35.9121 81.4111 35.8742 81.4915C35.8364 81.572 35.7769 81.6394 35.7025 81.6867C35.6282 81.7352 35.5422 81.76 35.4543 81.76Z" fill="#1B5EC9"/>
<path d="M42.1793 83.12C42.1017 83.12 42.0253 83.1009 41.9575 83.0639C41.2887 82.7049 40.5638 82.457 39.8118 82.3291C39.6939 82.3067 39.5896 82.2394 39.5214 82.1429C39.4532 82.0465 39.4267 81.9276 39.4472 81.812C39.4678 81.6965 39.534 81.5933 39.6316 81.5248C39.7291 81.4564 39.8504 81.4272 39.9692 81.4452C40.8214 81.5899 41.6433 81.8703 42.4011 82.2775C42.4909 82.3258 42.5617 82.4009 42.6024 82.4929C42.6431 82.5838 42.6515 82.6859 42.6259 82.7835C42.6005 82.8799 42.5427 82.9652 42.4619 83.0269C42.381 83.0875 42.2816 83.12 42.1793 83.12Z" fill="#1B5EC9"/>
<path d="M48.5052 85.36C48.4342 85.36 48.3643 85.3438 48.301 85.3101C48.2375 85.2777 48.1826 85.2301 48.1403 85.1721C47.862 84.7976 47.4913 84.5065 47.0664 84.3267C46.6413 84.147 46.1774 84.0867 45.7221 84.1516C45.6032 84.1702 45.4821 84.14 45.3852 84.067C45.2882 83.9939 45.2236 83.8849 45.2054 83.7631C45.1873 83.6414 45.2171 83.5173 45.2882 83.4187C45.3594 83.319 45.4661 83.2529 45.585 83.2343C46.2037 83.1462 46.8342 83.2285 47.4117 83.4721C47.9892 83.7156 48.4929 84.111 48.8712 84.6201C48.9213 84.6897 48.9515 84.772 48.9586 84.8567C48.9657 84.9425 48.9493 85.0295 48.9113 85.106C48.8734 85.1826 48.8152 85.2475 48.7435 85.2916C48.6719 85.3368 48.5893 85.36 48.5052 85.36Z" fill="#1B5EC9"/>
<path d="M118.773 108.72C118.745 108.72 118.718 108.718 118.692 108.713C118.573 108.692 118.469 108.623 118.4 108.524C118.332 108.425 118.306 108.303 118.328 108.184C118.488 107.286 118.638 106.668 118.827 105.886C119.319 103.863 120.06 100.805 121.901 89.0372C121.908 88.9769 121.928 88.9189 121.958 88.8666C121.988 88.8131 122.028 88.7676 122.077 88.7312C122.126 88.6948 122.181 88.6686 122.24 88.6539C122.299 88.6391 122.358 88.6356 122.418 88.6459C122.478 88.655 122.536 88.6766 122.587 88.7085C122.639 88.7403 122.683 88.7824 122.718 88.8324C122.753 88.8825 122.778 88.9382 122.79 88.9974C122.802 89.0577 122.804 89.1191 122.793 89.1783C120.947 100.985 120.194 104.064 119.706 106.101C119.52 106.868 119.367 107.474 119.217 108.346C119.198 108.45 119.142 108.546 119.062 108.614C118.981 108.682 118.878 108.72 118.773 108.72Z" fill="white"/>
<path d="M111.797 60.4169C113.327 61.3522 115.372 61.1524 116.997 60.3613C118.193 59.7801 119.262 58.8721 119.821 57.6916C120.651 55.9459 120.212 53.7359 118.836 52.3727C117.46 51.0095 115.257 50.5385 113.38 51.1321C111.713 51.6588 110.452 52.9584 109.678 54.459C109.042 55.6939 109.473 57.0287 109.992 58.2342C110.367 59.1104 110.959 59.9072 111.797 60.4169Z" fill="black"/>
<path d="M113.934 55.4576C114.323 55.0194 115.197 55.1659 115.399 55.7028C115.6 56.2397 115.024 56.8887 114.434 56.79C113.844 56.6912 113.548 55.8947 113.934 55.4576Z" fill="#FF5400"/>
<path d="M110.913 56.72H110.906C110.849 56.7191 110.793 56.7062 110.741 56.682C110.689 56.6578 110.642 56.6228 110.602 56.579C110.563 56.5352 110.531 56.4835 110.511 56.4268C110.489 56.37 110.479 56.3094 110.481 56.2484C110.498 55.6205 110.666 55.0083 110.971 54.4724C111.276 53.9364 111.706 53.4951 112.218 53.1921C112.267 53.1582 112.322 53.1355 112.381 53.1257C112.439 53.1158 112.498 53.1188 112.556 53.1346C112.613 53.1505 112.667 53.1788 112.713 53.2177C112.76 53.2567 112.799 53.3055 112.827 53.3611C112.856 53.4168 112.873 53.4781 112.879 53.5413C112.884 53.6045 112.878 53.6683 112.859 53.7287C112.841 53.789 112.812 53.8447 112.772 53.8922C112.733 53.9399 112.685 53.9783 112.632 54.0053C112.255 54.2309 111.939 54.5567 111.714 54.9515C111.488 55.3464 111.361 55.797 111.345 56.26C111.343 56.3824 111.297 56.4994 111.216 56.5856C111.135 56.6717 111.026 56.72 110.913 56.72Z" fill="white"/>
<path d="M119.854 87.7875C126.18 85.6995 125.634 80.7709 125.204 78.5606C124.218 73.486 119.177 72.326 116.389 72.9564C114.495 73.3842 109.12 75.2458 110.229 81.5755C111.237 87.328 116.814 88.7913 119.854 87.7875Z" fill="black"/>
<path d="M119.376 79.5334C117.705 77.3489 115.613 79.7104 115.958 80.8934C116.323 82.1465 117.693 82.5926 118.767 82.158C119.841 81.7234 120.044 80.4059 119.376 79.5334Z" fill="#FF5400"/>
<path d="M111.786 80.7196C111.679 80.7196 111.576 80.6814 111.494 80.6108C111.412 80.5413 111.358 80.4441 111.339 80.3376C110.999 78.3701 112.161 76.075 114.054 75.0137C114.158 74.957 114.281 74.9447 114.396 74.9793C114.51 75.014 114.606 75.0928 114.663 75.199C114.721 75.3051 114.736 75.43 114.704 75.5469C114.672 75.6637 114.596 75.7631 114.494 75.8239C112.951 76.6919 111.959 78.6016 112.234 80.1791C112.254 80.2994 112.228 80.4244 112.159 80.5251C112.089 80.6258 111.985 80.6941 111.867 80.7161C111.839 80.7196 111.812 80.7207 111.786 80.7196Z" fill="white"/>
<path d="M112.914 84.96C112.854 84.96 112.796 84.9475 112.741 84.9247C112.687 84.9008 112.638 84.8666 112.596 84.8233C112.561 84.7857 111.73 83.9121 111.605 82.8425C111.596 82.7821 111.598 82.7206 111.614 82.6614C111.628 82.6033 111.655 82.5474 111.691 82.4996C111.727 82.4506 111.772 82.4096 111.824 82.38C111.876 82.3493 111.933 82.3299 111.993 82.3231C112.052 82.3162 112.112 82.3208 112.169 82.3379C112.225 82.3549 112.279 82.3834 112.326 82.421C112.372 82.4597 112.41 82.5076 112.438 82.5611C112.466 82.6147 112.484 82.6739 112.489 82.7343C112.577 83.4826 113.226 84.1786 113.232 84.1854C113.294 84.2492 113.335 84.3312 113.352 84.4189C113.368 84.5078 113.358 84.5989 113.325 84.6809C113.29 84.7641 113.234 84.8347 113.16 84.8837C113.087 84.9338 113.001 84.96 112.914 84.96Z" fill="white"/>
<path d="M91.5195 91.59L91.9283 69.3074C91.9613 67.5477 92.3757 65.3043 94.1564 64.9258C95.1424 64.7151 96.1671 65.2567 96.7751 66.0306C97.3831 66.8044 97.653 67.7743 97.8727 68.725C98.9042 73.1734 99.1422 77.7578 99.3767 82.3215C99.584 86.3484 99.7923 90.3742 99.9995 94.4L91.5195 91.59Z" fill="#1B5EC9"/>
<path d="M98.7554 132.16C98.394 132.16 98.0361 132.143 97.6907 132.12C97.0213 132.077 96.6226 132.059 96.3315 132.046C95.6609 132.017 95.6303 132.012 94.7004 131.798L94.6721 131.791C94.6132 131.777 94.5588 131.752 94.5101 131.718C94.4614 131.683 94.4207 131.64 94.3889 131.589C94.3572 131.539 94.3357 131.482 94.3267 131.423C94.3165 131.364 94.3187 131.304 94.3323 131.246C94.3448 131.188 94.3697 131.134 94.4048 131.085C94.4388 131.036 94.483 130.995 94.5328 130.963C94.5838 130.931 94.6404 130.91 94.6982 130.9C94.7571 130.891 94.8171 130.892 94.876 130.905L94.9043 130.912C95.7708 131.113 95.7708 131.113 96.3711 131.139C96.6497 131.152 97.0722 131.17 97.7507 131.214C99.0929 131.303 100.483 131.291 101.554 130.612C103.241 129.546 103.706 127.288 103.027 123.507C103.014 123.448 103.013 123.387 103.026 123.327C103.037 123.267 103.061 123.211 103.093 123.161C103.127 123.11 103.172 123.068 103.223 123.034C103.272 123.001 103.329 122.978 103.389 122.968C103.449 122.956 103.51 122.958 103.569 122.971C103.628 122.985 103.684 123.01 103.733 123.045C103.782 123.08 103.824 123.126 103.856 123.177C103.887 123.229 103.908 123.286 103.918 123.346C104.395 125.983 104.718 129.686 102.039 131.381C101.057 132.001 99.8846 132.16 98.7554 132.16Z" fill="white"/>
<path d="M98.9502 96.375C100.77 94.7417 101.168 91.8323 99.9107 89.7783C98.8822 88.0938 97.0226 87.2067 95.0349 87.3818C93.6674 87.5024 92.2387 87.93 91.3463 89.0151C90.4539 90.1001 90.3156 91.5173 90.4392 92.8355C90.6127 94.752 91.4722 96.5274 93.3794 97.2985C95.1948 98.0333 97.4784 97.6966 98.9502 96.375Z" fill="black"/>
<path d="M95.4012 98.0797C94.645 98.0831 93.8957 97.9413 93.1943 97.6624C91.3221 96.9106 90.1731 95.1949 89.9579 92.833C89.7985 91.0924 90.1413 89.6999 90.976 88.6941C91.83 87.6645 93.1806 87.0623 94.9912 86.9036C97.1731 86.7108 99.2149 87.7098 100.321 89.5116C101.708 91.7648 101.246 94.9069 99.2718 96.6668C98.1968 97.5921 96.8212 98.0944 95.4012 98.0797ZM95.5355 87.7824C95.3807 87.7824 95.2247 87.7824 95.0675 87.8028C93.5086 87.9389 92.3675 88.4321 91.6752 89.2667C90.9987 90.082 90.7254 91.2522 90.8621 92.7456C90.968 93.9079 91.4554 95.983 93.5313 96.8165C95.2326 97.4968 97.3416 97.1567 98.6557 95.9819C100.314 94.5078 100.705 91.8668 99.536 89.972C98.6819 88.5852 97.2084 87.7869 95.5355 87.7869V87.7824Z" fill="black"/>
<path d="M94.1641 92.6506C94.2272 93.3015 94.4331 94.08 95.1452 94.08C95.8574 94.08 96.6035 93.9459 96.7602 93.3103C96.9344 92.6077 96.5263 91.7852 95.7802 91.5664C95.0341 91.3476 94.0916 91.9348 94.1641 92.6506Z" fill="#FF5400"/>
<path d="M92.3734 91.12H92.3621C92.302 91.1189 92.2431 91.1055 92.1887 91.082C92.1344 91.0586 92.0856 91.0239 92.0448 90.9815C92.0029 90.939 91.9712 90.8888 91.9497 90.834C91.9282 90.7793 91.918 90.7212 91.9202 90.662C91.9497 89.4834 92.9206 88.421 94.1317 88.2434C94.2484 88.2289 94.3673 88.2613 94.4614 88.3317C94.5554 88.402 94.6177 88.5059 94.6347 88.621C94.6528 88.7361 94.6234 88.8545 94.5543 88.9483C94.4851 89.0433 94.3809 89.107 94.2654 89.1271C93.4904 89.2388 92.8447 89.9392 92.8266 90.6843C92.8232 90.8016 92.7745 90.9122 92.6895 90.9938C92.6045 91.0742 92.4912 91.12 92.3734 91.12Z" fill="white"/>
<path d="M102.832 120.56C102.721 120.561 102.613 120.52 102.53 120.447C102.448 120.374 102.393 120.272 102.381 120.161L101.762 114.974C101.751 114.857 101.787 114.739 101.86 114.647C101.934 114.557 102.04 114.497 102.157 114.483C102.274 114.469 102.391 114.501 102.485 114.573C102.577 114.644 102.639 114.75 102.657 114.866L103.277 120.052C103.283 120.111 103.279 120.171 103.263 120.229C103.246 120.287 103.219 120.34 103.183 120.387C103.146 120.434 103.101 120.473 103.049 120.502C102.997 120.532 102.941 120.55 102.882 120.557C102.865 120.559 102.848 120.56 102.832 120.56Z" fill="white"/>
<path d="M114.832 49.12C114.723 49.1203 114.619 49.0821 114.537 49.0122C114.092 48.6389 113.481 47.0492 112.192 43.391C111.788 42.2415 111.406 41.1556 111.148 40.5282C111.107 40.4178 111.112 40.2961 111.159 40.1889C111.208 40.0818 111.296 39.9972 111.405 39.9532C111.514 39.9091 111.635 39.909 111.745 39.9526C111.854 39.9964 111.941 40.0806 111.99 40.1878C112.256 40.8368 112.641 41.9329 113.05 43.0925C113.692 44.916 114.767 47.9717 115.127 48.3257C115.195 48.3863 115.244 48.4663 115.266 48.5551C115.289 48.6441 115.283 48.7376 115.252 48.8236C115.22 48.9096 115.163 48.9839 115.088 49.0368C115.013 49.0897 114.923 49.1187 114.832 49.12Z" fill="white"/>
<path d="M117.957 44.24C117.862 44.24 117.769 44.2087 117.692 44.1511C117.616 44.0935 117.559 44.0123 117.533 43.9197C117.241 42.9265 116.56 39.2085 116.062 36.4939C115.821 35.1781 115.619 34.041 115.535 33.6849C115.519 33.6264 115.516 33.5654 115.524 33.5055C115.532 33.4456 115.552 33.3881 115.583 33.3363C115.614 33.2846 115.655 33.2398 115.704 33.2045C115.752 33.1691 115.807 33.1442 115.866 33.1309C115.923 33.1177 115.983 33.1164 116.042 33.1274C116.1 33.1383 116.157 33.1611 116.207 33.1945C116.256 33.2279 116.298 33.2711 116.332 33.3216C116.364 33.372 116.387 33.4287 116.398 33.4882C116.48 33.8601 116.68 34.9489 116.933 36.3287C117.427 39.0253 118.102 42.7141 118.381 43.6613C118.397 43.7181 118.403 43.7776 118.397 43.8366C118.392 43.8957 118.374 43.9529 118.347 44.0051C118.319 44.0574 118.281 44.1036 118.236 44.1409C118.19 44.1783 118.138 44.2063 118.083 44.2231C118.041 44.2348 117.999 44.2404 117.957 44.24Z" fill="white"/>
<path d="M123.547 72.08C123.458 72.0801 123.371 72.0544 123.297 72.0059C123.223 71.9576 123.165 71.8887 123.13 71.8077C121.436 67.9346 120.47 63.7824 119.535 59.7675C119.519 59.7088 119.515 59.6478 119.524 59.5879C119.534 59.528 119.554 59.4705 119.586 59.4186C119.616 59.3669 119.658 59.3219 119.707 59.2864C119.756 59.2509 119.812 59.2254 119.871 59.2117C119.93 59.1981 119.991 59.1963 120.051 59.2066C120.11 59.2168 120.168 59.2389 120.218 59.2716C120.269 59.3043 120.313 59.3468 120.347 59.3966C120.382 59.4466 120.406 59.5028 120.419 59.5622C121.345 63.5328 122.302 67.6476 123.962 71.4447C123.991 71.5137 124.004 71.5891 123.998 71.6641C123.991 71.7391 123.966 71.8115 123.926 71.8744C123.884 71.9375 123.828 71.9892 123.762 72.0251C123.695 72.0611 123.621 72.0799 123.547 72.08Z" fill="white"/>
<path d="M124.68 98.96H124.633C124.575 98.9544 124.519 98.9364 124.469 98.9083C124.418 98.8802 124.373 98.842 124.337 98.7959C124.301 98.7498 124.274 98.697 124.257 98.6397C124.242 98.5824 124.236 98.524 124.243 98.4644C124.563 95.401 124.832 92.2905 125.042 89.2193C125.046 89.1608 125.061 89.1024 125.087 89.0496C125.112 88.9968 125.149 88.9496 125.191 88.9114C125.235 88.872 125.286 88.8428 125.341 88.8237C125.395 88.8046 125.453 88.7967 125.512 88.8012C125.569 88.8057 125.624 88.8215 125.676 88.8473C125.729 88.8743 125.775 88.9102 125.812 88.9552C125.85 89.0001 125.879 89.0518 125.897 89.108C125.916 89.1642 125.923 89.2238 125.919 89.2822C125.708 92.3647 125.438 95.4864 125.118 98.5599C125.106 98.67 125.054 98.7723 124.973 98.8465C124.893 98.9195 124.788 98.9611 124.68 98.96Z" fill="white"/>
<path d="M124.305 104.16H124.269C124.147 104.152 124.033 104.095 123.953 104.004C123.872 103.912 123.832 103.793 123.841 103.672L123.956 101.946C123.965 101.825 124.021 101.712 124.113 101.632C124.205 101.552 124.327 101.512 124.449 101.521C124.571 101.529 124.685 101.585 124.766 101.677C124.847 101.768 124.887 101.888 124.879 102.009L124.764 103.736C124.754 103.852 124.702 103.959 124.617 104.038C124.533 104.115 124.42 104.16 124.305 104.16Z" fill="white"/>
<path d="M116.616 119.36C116.583 119.36 116.55 119.357 116.519 119.35C116.459 119.337 116.405 119.313 116.355 119.278C116.306 119.244 116.264 119.201 116.232 119.151C116.2 119.101 116.177 119.044 116.167 118.985C116.157 118.928 116.158 118.866 116.172 118.808L117.5 112.757C117.525 112.639 117.597 112.537 117.699 112.472C117.801 112.406 117.924 112.385 118.042 112.411C118.16 112.436 118.263 112.507 118.327 112.609C118.393 112.71 118.415 112.833 118.39 112.951L117.06 119.004C117.037 119.105 116.982 119.195 116.901 119.26C116.82 119.325 116.72 119.36 116.616 119.36Z" fill="white"/>
<path d="M129.883 135.305C129.883 135.305 127.839 136.181 128.204 138.291C128.569 140.401 131.309 140.361 132.298 139.233C134.085 137.205 133.184 135.02 129.883 135.305Z" fill="#FACBDF"/>
<path d="M129.57 138.88C129.481 138.88 129.395 138.854 129.321 138.805C129.248 138.755 129.191 138.685 129.156 138.603C129.121 138.521 129.112 138.43 129.128 138.342C129.143 138.254 129.184 138.174 129.246 138.109C129.85 137.475 130.583 136.983 131.397 136.667C131.507 136.626 131.63 136.632 131.737 136.681C131.845 136.731 131.928 136.821 131.971 136.933C132.012 137.044 132.01 137.169 131.963 137.278C131.915 137.387 131.828 137.474 131.719 137.518C131.03 137.786 130.408 138.203 129.897 138.74C129.854 138.784 129.804 138.82 129.748 138.845C129.691 138.869 129.631 138.88 129.57 138.88Z" fill="#1B5EC9"/>
<path d="M54.6264 95.12C54.5917 95.12 54.5572 95.1155 54.5232 95.1087C54.4025 95.0816 54.2978 95.0104 54.2319 94.9087C54.1661 94.8081 54.1444 94.6849 54.1717 94.5685C54.695 92.324 54.9669 90.0331 54.9826 87.7321C54.9826 87.6123 55.0321 87.497 55.12 87.4122C55.2079 87.3275 55.3271 87.28 55.4514 87.28C55.5757 87.28 55.695 87.3275 55.7829 87.4122C55.8708 87.497 55.9202 87.6123 55.9202 87.7321C55.9028 90.0998 55.6223 92.4584 55.0834 94.7674C55.0601 94.868 55.0021 94.9573 54.919 95.0217C54.8359 95.085 54.7328 95.12 54.6264 95.12Z" fill="#1B5EC9"/>
</svg>
