<svg width="192" height="40" viewBox="0 0 192 40" fill="none" xmlns="http://www.w3.org/2000/svg">
<g clip-path="url(#clip0_407_10149)">
<rect opacity="0.95417" width="192" height="40" rx="20" fill="white"/>
<path fill-rule="evenodd" clip-rule="evenodd" d="M21.4654 12.0001L23.9244 12.0001C25.1627 11.9881 26.218 12.8942 26.3924 14.1257C26.4884 14.8524 26.6664 15.566 26.9225 16.2509C27.2613 17.1508 27.0446 18.1654 26.3641 18.8523L25.7752 19.44L25.8373 19.5383C26.7758 20.978 28.0058 22.2058 29.4479 23.1427L29.5456 23.2038L30.1384 22.6135C30.783 21.9773 31.7212 21.7482 32.5794 22.0049L32.7393 22.0587C33.4272 22.315 34.142 22.4927 34.8774 22.5896C36.1177 22.7643 37.0301 23.8392 36.9992 25.0689L36.9992 27.5282C37.0021 28.2217 36.7119 28.8841 36.2 29.3529C35.6882 29.8217 35.002 30.0533 34.2954 29.9895C31.6371 29.7011 29.0836 28.7943 26.8465 27.346C24.7577 26.0211 22.9868 24.2532 21.6634 22.1741C20.2034 19.9244 19.2948 17.3629 19.01 14.6845C18.9477 13.996 19.1781 13.3131 19.645 12.8025C20.1118 12.292 20.7721 12.0009 21.4654 12.0001Z" fill="#FFCC00"/>
<path d="M23.9244 12L23.9244 13L23.9341 13L23.9244 12ZM21.4654 12L21.4655 11L21.4643 11L21.4654 12ZM26.3924 14.1255L27.3838 13.9946L27.3825 13.9854L26.3924 14.1255ZM26.9225 16.2508L25.9858 16.6009L25.9866 16.6032L26.9225 16.2508ZM26.3641 18.8522L27.0705 19.5601L27.0746 19.5559L26.3641 18.8522ZM25.7752 19.4398L25.0688 18.732L24.5024 19.2972L24.9297 19.9738L25.7752 19.4398ZM25.8373 19.5382L24.9918 20.0722L24.9956 20.0783L24.9996 20.0843L25.8373 19.5382ZM29.4479 23.1426L28.9032 23.9812L28.9103 23.9858L28.9174 23.9902L29.4479 23.1426ZM29.5456 23.2037L29.015 24.0513L29.6883 24.4727L30.2511 23.9123L29.5456 23.2037ZM30.1384 22.6134L29.4359 21.9017L29.4329 21.9047L30.1384 22.6134ZM32.5794 22.0048L32.8985 21.057L32.8823 21.0516L32.8659 21.0467L32.5794 22.0048ZM32.7393 22.0586L33.0883 21.1215L33.0735 21.116L33.0584 21.1109L32.7393 22.0586ZM34.8774 22.5895L35.0168 21.5992L35.008 21.598L34.8774 22.5895ZM36.9992 25.0687L35.9996 25.0437L35.9992 25.0562V25.0687L36.9992 25.0687ZM36.9992 27.5281L35.9992 27.5281L35.9992 27.5322L36.9992 27.5281ZM34.2954 29.9893L34.1876 30.9835L34.1965 30.9845L34.2054 30.9853L34.2954 29.9893ZM26.8465 27.3459L27.39 26.5065L27.3822 26.5015L26.8465 27.3459ZM21.6634 22.174L22.507 21.637L22.5022 21.6296L21.6634 22.174ZM19.01 14.6844L18.0141 14.7745L18.0148 14.7823L18.0156 14.7901L19.01 14.6844ZM19.645 12.8024L18.907 12.1276L19.645 12.8024ZM23.9244 11L21.4655 11L21.4654 13L23.9244 13L23.9244 11ZM27.3825 13.9854C27.1379 12.2575 25.6553 10.9831 23.9147 11L23.9341 13C24.67 12.9928 25.2982 13.5305 25.4022 14.2657L27.3825 13.9854ZM27.8592 15.9006C27.6296 15.2865 27.4699 14.6465 27.3837 13.9946L25.401 14.2565C25.5069 15.0581 25.7033 15.8452 25.9858 16.6009L27.8592 15.9006ZM27.0746 19.5559C28.0292 18.5923 28.3354 17.1655 27.8583 15.8984L25.9866 16.6032C26.1872 17.136 26.06 17.7383 25.6537 18.1484L27.0746 19.5559ZM26.4815 20.1477L27.0705 19.5601L25.6578 18.1443L25.0688 18.732L26.4815 20.1477ZM26.6828 19.0042L26.6207 18.9059L24.9297 19.9738L24.9918 20.0722L26.6828 19.0042ZM29.9927 22.304C28.6674 21.4431 27.5373 20.3148 26.675 18.9921L24.9996 20.0843C26.0143 21.6409 27.3441 22.9684 28.9032 23.9812L29.9927 22.304ZM30.0761 22.356L29.9785 22.2949L28.9174 23.9902L29.015 24.0513L30.0761 22.356ZM29.4329 21.9047L28.84 22.495L30.2511 23.9123L30.844 23.3221L29.4329 21.9047ZM32.8659 21.0467C31.6595 20.6858 30.3417 21.0076 29.4359 21.9017L30.841 23.3251C31.2243 22.9466 31.7829 22.8103 32.2928 22.9628L32.8659 21.0467ZM33.0584 21.1109L32.8985 21.057L32.2602 22.9525L32.4201 23.0063L33.0584 21.1109ZM35.008 21.598C34.3468 21.511 33.7054 21.3513 33.0883 21.1215L32.3902 22.9957C33.1491 23.2784 33.9372 23.4743 34.7468 23.5809L35.008 21.598ZM37.9989 25.0938C38.0426 23.3497 36.7536 21.8438 35.0168 21.5992L34.7379 23.5797C35.4819 23.6845 36.0175 24.3284 35.9996 25.0437L37.9989 25.0938ZM37.9992 27.5281L37.9992 25.0688L35.9992 25.0687L35.9992 27.5281L37.9992 27.5281ZM36.8754 30.0903C37.5949 29.4313 38.0032 28.4997 37.9992 27.524L35.9992 27.5322C36.0009 27.9434 35.8288 28.3367 35.5246 28.6153L36.8754 30.0903ZM34.2054 30.9853C35.1888 31.0742 36.1536 30.7513 36.8754 30.0903L35.5246 28.6153C35.2227 28.8919 34.8153 29.0323 34.3854 28.9934L34.2054 30.9853ZM26.3031 28.1854C28.6715 29.7187 31.3743 30.6783 34.1876 30.9835L34.4032 28.9952C31.8999 28.7236 29.4957 27.8697 27.3899 26.5065L26.3031 28.1854ZM20.8198 22.711C22.2222 24.9142 24.0984 26.7869 26.3108 28.1904L27.3822 26.5015C25.4171 25.255 23.7514 23.592 22.507 21.637L20.8198 22.711ZM18.0156 14.7901C18.3171 17.6247 19.2788 20.3364 20.8246 22.7184L22.5022 21.6296C21.128 19.5121 20.2726 17.1009 20.0044 14.5786L18.0156 14.7901ZM18.907 12.1276C18.2506 12.8454 17.9264 13.8059 18.0141 14.7745L20.0059 14.5942C19.969 14.1859 20.1056 13.7806 20.383 13.4772L18.907 12.1276ZM21.4643 11C20.4912 11.001 19.5634 11.4098 18.907 12.1276L20.383 13.4772C20.6602 13.174 21.053 13.0004 21.4666 13L21.4643 11Z" fill="#FF6800"/>
<mask id="mask0_407_10149" style="mask-type:luminance" maskUnits="userSpaceOnUse" x="18" y="11" width="20" height="20">
<path fill-rule="evenodd" clip-rule="evenodd" d="M21.4654 12.0001L23.9244 12.0001C25.1627 11.9881 26.218 12.8942 26.3924 14.1257C26.4884 14.8524 26.6664 15.566 26.9225 16.2509C27.2613 17.1508 27.0446 18.1654 26.3641 18.8523L25.7752 19.44L25.8373 19.5383C26.7758 20.978 28.0058 22.2058 29.4479 23.1427L29.5456 23.2038L30.1384 22.6135C30.783 21.9773 31.7212 21.7482 32.5794 22.0049L32.7393 22.0587C33.4272 22.315 34.142 22.4927 34.8774 22.5896C36.1177 22.7643 37.0301 23.8392 36.9992 25.0689L36.9992 27.5282C37.0021 28.2217 36.7119 28.8841 36.2 29.3529C35.6882 29.8217 35.002 30.0533 34.2954 29.9895C31.6371 29.7011 29.0836 28.7943 26.8465 27.346C24.7577 26.0211 22.9868 24.2532 21.6634 22.1741C20.2034 19.9244 19.2948 17.3629 19.01 14.6845C18.9477 13.996 19.1781 13.3131 19.645 12.8025C20.1118 12.292 20.7721 12.0009 21.4654 12.0001Z" fill="white"/>
<path d="M23.9244 12L23.9244 13L23.9341 13L23.9244 12ZM21.4654 12L21.4655 11L21.4643 11L21.4654 12ZM26.3924 14.1255L27.3838 13.9946L27.3825 13.9854L26.3924 14.1255ZM26.9225 16.2508L25.9858 16.6009L25.9866 16.6032L26.9225 16.2508ZM26.3641 18.8522L27.0705 19.5601L27.0746 19.5559L26.3641 18.8522ZM25.7752 19.4398L25.0688 18.732L24.5024 19.2972L24.9297 19.9738L25.7752 19.4398ZM25.8373 19.5382L24.9918 20.0722L24.9956 20.0783L24.9996 20.0843L25.8373 19.5382ZM29.4479 23.1426L28.9032 23.9812L28.9103 23.9858L28.9174 23.9902L29.4479 23.1426ZM29.5456 23.2037L29.015 24.0513L29.6883 24.4727L30.2511 23.9123L29.5456 23.2037ZM30.1384 22.6134L29.4359 21.9017L29.4329 21.9047L30.1384 22.6134ZM32.5794 22.0048L32.8985 21.057L32.8823 21.0516L32.8659 21.0467L32.5794 22.0048ZM32.7393 22.0586L33.0883 21.1215L33.0735 21.116L33.0584 21.1109L32.7393 22.0586ZM34.8774 22.5895L35.0168 21.5992L35.008 21.598L34.8774 22.5895ZM36.9992 25.0687L35.9996 25.0437L35.9992 25.0562V25.0687L36.9992 25.0687ZM36.9992 27.5281L35.9992 27.5281L35.9992 27.5322L36.9992 27.5281ZM34.2954 29.9893L34.1876 30.9835L34.1965 30.9845L34.2054 30.9853L34.2954 29.9893ZM26.8465 27.3459L27.39 26.5065L27.3822 26.5015L26.8465 27.3459ZM21.6634 22.174L22.507 21.637L22.5022 21.6296L21.6634 22.174ZM19.01 14.6844L18.0141 14.7745L18.0148 14.7823L18.0156 14.7901L19.01 14.6844ZM19.645 12.8024L18.907 12.1276L19.645 12.8024ZM23.9244 11L21.4655 11L21.4654 13L23.9244 13L23.9244 11ZM27.3825 13.9854C27.1379 12.2575 25.6553 10.9831 23.9147 11L23.9341 13C24.67 12.9928 25.2982 13.5305 25.4022 14.2657L27.3825 13.9854ZM27.8592 15.9006C27.6296 15.2865 27.4699 14.6465 27.3837 13.9946L25.401 14.2565C25.5069 15.0581 25.7033 15.8452 25.9858 16.6009L27.8592 15.9006ZM27.0746 19.5559C28.0292 18.5923 28.3354 17.1655 27.8583 15.8984L25.9866 16.6032C26.1872 17.136 26.06 17.7383 25.6537 18.1484L27.0746 19.5559ZM26.4815 20.1477L27.0705 19.5601L25.6578 18.1443L25.0688 18.732L26.4815 20.1477ZM26.6828 19.0042L26.6207 18.9059L24.9297 19.9738L24.9918 20.0722L26.6828 19.0042ZM29.9927 22.304C28.6674 21.4431 27.5373 20.3148 26.675 18.9921L24.9996 20.0843C26.0143 21.6409 27.3441 22.9684 28.9032 23.9812L29.9927 22.304ZM30.0761 22.356L29.9785 22.2949L28.9174 23.9902L29.015 24.0513L30.0761 22.356ZM29.4329 21.9047L28.84 22.495L30.2511 23.9123L30.844 23.3221L29.4329 21.9047ZM32.8659 21.0467C31.6595 20.6858 30.3417 21.0076 29.4359 21.9017L30.841 23.3251C31.2243 22.9466 31.7829 22.8103 32.2928 22.9628L32.8659 21.0467ZM33.0584 21.1109L32.8985 21.057L32.2602 22.9525L32.4201 23.0063L33.0584 21.1109ZM35.008 21.598C34.3468 21.511 33.7054 21.3513 33.0883 21.1215L32.3902 22.9957C33.1491 23.2784 33.9372 23.4743 34.7468 23.5809L35.008 21.598ZM37.9989 25.0938C38.0426 23.3497 36.7536 21.8438 35.0168 21.5992L34.7379 23.5797C35.4819 23.6845 36.0175 24.3284 35.9996 25.0437L37.9989 25.0938ZM37.9992 27.5281L37.9992 25.0688L35.9992 25.0687L35.9992 27.5281L37.9992 27.5281ZM36.8754 30.0903C37.5949 29.4313 38.0032 28.4997 37.9992 27.524L35.9992 27.5322C36.0009 27.9434 35.8288 28.3367 35.5246 28.6153L36.8754 30.0903ZM34.2054 30.9853C35.1888 31.0742 36.1536 30.7513 36.8754 30.0903L35.5246 28.6153C35.2227 28.8919 34.8153 29.0323 34.3854 28.9934L34.2054 30.9853ZM26.3031 28.1854C28.6715 29.7187 31.3743 30.6783 34.1876 30.9835L34.4032 28.9952C31.8999 28.7236 29.4957 27.8697 27.3899 26.5065L26.3031 28.1854ZM20.8198 22.711C22.2222 24.9142 24.0984 26.7869 26.3108 28.1904L27.3822 26.5015C25.4171 25.255 23.7514 23.592 22.507 21.637L20.8198 22.711ZM18.0156 14.7901C18.3171 17.6247 19.2788 20.3364 20.8246 22.7184L22.5022 21.6296C21.128 19.5121 20.2726 17.1009 20.0044 14.5786L18.0156 14.7901ZM18.907 12.1276C18.2506 12.8454 17.9264 13.8059 18.0141 14.7745L20.0059 14.5942C19.969 14.1859 20.1056 13.7806 20.383 13.4772L18.907 12.1276ZM21.4643 11C20.4912 11.001 19.5634 11.4098 18.907 12.1276L20.383 13.4772C20.6602 13.174 21.053 13.0004 21.4666 13L21.4643 11Z" fill="white"/>
</mask>
<g mask="url(#mask0_407_10149)">
</g>
<path d="M29.0157 15.4267C29.1046 15.0623 29.5459 14.8245 30.0013 14.8956C32.016 15.2101 33.5912 16.4703 33.9843 18.082C34.0732 18.4464 33.776 18.7994 33.3205 18.8705C32.865 18.9416 32.4237 18.7038 32.3348 18.3394C32.0728 17.2649 31.0226 16.4248 29.6795 16.2152C29.224 16.1441 28.9268 15.7911 29.0157 15.4267Z" fill="#FF6800"/>
<path d="M29.8928 11.005C33.6266 11.4202 36.5754 14.3683 36.9949 18.1052C37.0445 18.547 36.727 18.9453 36.2857 18.9949C35.8444 19.0445 35.4465 18.7267 35.3969 18.285C35.0614 15.2954 32.7023 12.9369 29.7153 12.6048C29.274 12.5557 28.956 12.1578 29.005 11.716C29.0505 11.3058 29.3965 11.002 29.7991 11L29.8928 11.005Z" fill="#FF6800"/>
<mask id="mask1_407_10149" style="mask-type:luminance" maskUnits="userSpaceOnUse" x="29" y="11" width="8" height="8">
<path d="M29.8928 11.005C33.6266 11.4202 36.5754 14.3683 36.9949 18.1052C37.0445 18.547 36.727 18.9453 36.2857 18.9949C35.8444 19.0445 35.4465 18.7267 35.3969 18.285C35.0614 15.2954 32.7023 12.9369 29.7153 12.6048C29.274 12.5557 28.956 12.1578 29.005 11.716C29.0505 11.3058 29.3965 11.002 29.7991 11L29.8928 11.005Z" fill="white"/>
</mask>
<g mask="url(#mask1_407_10149)">
</g>
<path d="M53.376 27.16C52.4907 27.16 51.6907 26.936 50.976 26.488C50.272 26.04 49.7173 25.3893 49.312 24.536C48.9067 23.672 48.704 22.6267 48.704 21.4C48.704 20.1733 48.9067 19.1333 49.312 18.28C49.7173 17.416 50.272 16.76 50.976 16.312C51.6907 15.864 52.4907 15.64 53.376 15.64C54.272 15.64 55.072 15.864 55.776 16.312C56.48 16.76 57.0347 17.416 57.44 18.28C57.856 19.1333 58.064 20.1733 58.064 21.4C58.064 22.6267 57.856 23.672 57.44 24.536C57.0347 25.3893 56.48 26.04 55.776 26.488C55.072 26.936 54.272 27.16 53.376 27.16ZM53.376 25.352C53.8987 25.352 54.352 25.2133 54.736 24.936C55.12 24.648 55.4187 24.2107 55.632 23.624C55.856 23.0373 55.968 22.296 55.968 21.4C55.968 20.4933 55.856 19.752 55.632 19.176C55.4187 18.5893 55.12 18.1573 54.736 17.88C54.352 17.592 53.8987 17.448 53.376 17.448C52.8747 17.448 52.4267 17.592 52.032 17.88C51.648 18.1573 51.344 18.5893 51.12 19.176C50.9067 19.752 50.8 20.4933 50.8 21.4C50.8 22.296 50.9067 23.0373 51.12 23.624C51.344 24.2107 51.648 24.648 52.032 24.936C52.4267 25.2133 52.8747 25.352 53.376 25.352ZM63.1816 27.16C62.3923 27.16 61.619 27.048 60.8616 26.824C60.115 26.5893 59.4856 26.2693 58.9736 25.864L59.8536 24.248C60.259 24.5787 60.7496 24.8453 61.3256 25.048C61.9123 25.2507 62.5203 25.352 63.1496 25.352C63.8856 25.352 64.4616 25.1973 64.8776 24.888C65.3043 24.5787 65.5176 24.1627 65.5176 23.64C65.5176 23.288 65.427 22.9787 65.2456 22.712C65.075 22.4453 64.7656 22.2427 64.3176 22.104C63.8803 21.9653 63.2776 21.896 62.5096 21.896H59.8056L60.3816 15.8H66.9576V17.544H61.1496L62.2376 16.552L61.8056 21.112L60.7176 20.136H62.9736C64.083 20.136 64.9736 20.2853 65.6456 20.584C66.3283 20.872 66.8243 21.2773 67.1336 21.8C67.4536 22.312 67.6136 22.8987 67.6136 23.56C67.6136 24.2107 67.4536 24.808 67.1336 25.352C66.8136 25.896 66.323 26.3333 65.6616 26.664C65.011 26.9947 64.1843 27.16 63.1816 27.16ZM72.2552 27.16C71.4659 27.16 70.6926 27.048 69.9353 26.824C69.1886 26.5893 68.5593 26.2693 68.0473 25.864L68.9433 24.248C69.3486 24.5787 69.8393 24.8453 70.4153 25.048C70.9913 25.2507 71.5939 25.352 72.2233 25.352C72.9699 25.352 73.5513 25.2027 73.9673 24.904C74.3833 24.5947 74.5913 24.1787 74.5913 23.656C74.5913 23.144 74.3993 22.7387 74.0153 22.44C73.6313 22.1413 73.0126 21.992 72.1593 21.992H71.1353V20.568L74.3353 16.76L74.6073 17.544H68.5913V15.8H76.2233V17.192L73.0233 21L71.9353 20.36H72.5593C73.9353 20.36 74.9646 20.6693 75.6473 21.288C76.3406 21.896 76.6873 22.68 76.6873 23.64C76.6873 24.2693 76.5273 24.8507 76.2073 25.384C75.8873 25.9173 75.3966 26.3493 74.7353 26.68C74.0846 27 73.2579 27.16 72.2552 27.16ZM82.7198 27.16C81.8344 27.16 81.0344 26.936 80.3198 26.488C79.6158 26.04 79.0611 25.3893 78.6558 24.536C78.2504 23.672 78.0478 22.6267 78.0478 21.4C78.0478 20.1733 78.2504 19.1333 78.6558 18.28C79.0611 17.416 79.6158 16.76 80.3198 16.312C81.0344 15.864 81.8344 15.64 82.7198 15.64C83.6158 15.64 84.4158 15.864 85.1198 16.312C85.8238 16.76 86.3784 17.416 86.7838 18.28C87.1998 19.1333 87.4078 20.1733 87.4078 21.4C87.4078 22.6267 87.1998 23.672 86.7838 24.536C86.3784 25.3893 85.8238 26.04 85.1198 26.488C84.4158 26.936 83.6158 27.16 82.7198 27.16ZM82.7198 25.352C83.2424 25.352 83.6958 25.2133 84.0798 24.936C84.4638 24.648 84.7624 24.2107 84.9758 23.624C85.1998 23.0373 85.3118 22.296 85.3118 21.4C85.3118 20.4933 85.1998 19.752 84.9758 19.176C84.7624 18.5893 84.4638 18.1573 84.0798 17.88C83.6958 17.592 83.2424 17.448 82.7198 17.448C82.2184 17.448 81.7704 17.592 81.3758 17.88C80.9918 18.1573 80.6878 18.5893 80.4638 19.176C80.2504 19.752 80.1438 20.4933 80.1438 21.4C80.1438 22.296 80.2504 23.0373 80.4638 23.624C80.6878 24.2107 80.9918 24.648 81.3758 24.936C81.7704 25.2133 82.2184 25.352 82.7198 25.352ZM97.9073 27.16C97.0219 27.16 96.2219 26.936 95.5073 26.488C94.8033 26.04 94.2486 25.3893 93.8433 24.536C93.4379 23.672 93.2353 22.6267 93.2353 21.4C93.2353 20.1733 93.4379 19.1333 93.8433 18.28C94.2486 17.416 94.8033 16.76 95.5073 16.312C96.2219 15.864 97.0219 15.64 97.9073 15.64C98.8033 15.64 99.6033 15.864 100.307 16.312C101.011 16.76 101.566 17.416 101.971 18.28C102.387 19.1333 102.595 20.1733 102.595 21.4C102.595 22.6267 102.387 23.672 101.971 24.536C101.566 25.3893 101.011 26.04 100.307 26.488C99.6033 26.936 98.8033 27.16 97.9073 27.16ZM97.9073 25.352C98.4299 25.352 98.8833 25.2133 99.2673 24.936C99.6513 24.648 99.9499 24.2107 100.163 23.624C100.387 23.0373 100.499 22.296 100.499 21.4C100.499 20.4933 100.387 19.752 100.163 19.176C99.9499 18.5893 99.6513 18.1573 99.2673 17.88C98.8833 17.592 98.4299 17.448 97.9073 17.448C97.4059 17.448 96.9579 17.592 96.5633 17.88C96.1793 18.1573 95.8753 18.5893 95.6513 19.176C95.4379 19.752 95.3313 20.4933 95.3313 21.4C95.3313 22.296 95.4379 23.0373 95.6513 23.624C95.8753 24.2107 96.1793 24.648 96.5633 24.936C96.9579 25.2133 97.4059 25.352 97.9073 25.352ZM103.841 24.456V23.016L109.361 15.8H111.585L106.145 23.016L105.105 22.696H113.985V24.456H103.841ZM109.985 27V24.456L110.049 22.696V20.44H112.001V27H109.985ZM119.532 27.16C118.647 27.16 117.847 26.936 117.132 26.488C116.428 26.04 115.874 25.3893 115.468 24.536C115.063 23.672 114.86 22.6267 114.86 21.4C114.86 20.1733 115.063 19.1333 115.468 18.28C115.874 17.416 116.428 16.76 117.132 16.312C117.847 15.864 118.647 15.64 119.532 15.64C120.428 15.64 121.228 15.864 121.932 16.312C122.636 16.76 123.191 17.416 123.596 18.28C124.012 19.1333 124.22 20.1733 124.22 21.4C124.22 22.6267 124.012 23.672 123.596 24.536C123.191 25.3893 122.636 26.04 121.932 26.488C121.228 26.936 120.428 27.16 119.532 27.16ZM119.532 25.352C120.055 25.352 120.508 25.2133 120.892 24.936C121.276 24.648 121.575 24.2107 121.788 23.624C122.012 23.0373 122.124 22.296 122.124 21.4C122.124 20.4933 122.012 19.752 121.788 19.176C121.575 18.5893 121.276 18.1573 120.892 17.88C120.508 17.592 120.055 17.448 119.532 17.448C119.031 17.448 118.583 17.592 118.188 17.88C117.804 18.1573 117.5 18.5893 117.276 19.176C117.063 19.752 116.956 20.4933 116.956 21.4C116.956 22.296 117.063 23.0373 117.276 23.624C117.5 24.2107 117.804 24.648 118.188 24.936C118.583 25.2133 119.031 25.352 119.532 25.352ZM134.72 27.16C133.834 27.16 133.034 26.936 132.32 26.488C131.616 26.04 131.061 25.3893 130.656 24.536C130.25 23.672 130.048 22.6267 130.048 21.4C130.048 20.1733 130.25 19.1333 130.656 18.28C131.061 17.416 131.616 16.76 132.32 16.312C133.034 15.864 133.834 15.64 134.72 15.64C135.616 15.64 136.416 15.864 137.12 16.312C137.824 16.76 138.378 17.416 138.784 18.28C139.2 19.1333 139.408 20.1733 139.408 21.4C139.408 22.6267 139.2 23.672 138.784 24.536C138.378 25.3893 137.824 26.04 137.12 26.488C136.416 26.936 135.616 27.16 134.72 27.16ZM134.72 25.352C135.242 25.352 135.696 25.2133 136.08 24.936C136.464 24.648 136.762 24.2107 136.976 23.624C137.2 23.0373 137.312 22.296 137.312 21.4C137.312 20.4933 137.2 19.752 136.976 19.176C136.762 18.5893 136.464 18.1573 136.08 17.88C135.696 17.592 135.242 17.448 134.72 17.448C134.218 17.448 133.77 17.592 133.376 17.88C132.992 18.1573 132.688 18.5893 132.464 19.176C132.25 19.752 132.144 20.4933 132.144 21.4C132.144 22.296 132.25 23.0373 132.464 23.624C132.688 24.2107 132.992 24.648 133.376 24.936C133.77 25.2133 134.218 25.352 134.72 25.352ZM145.661 27.16C144.648 27.16 143.779 26.9467 143.053 26.52C142.328 26.0827 141.773 25.4533 141.389 24.632C141.005 23.8107 140.813 22.7973 140.813 21.592C140.813 20.312 141.043 19.2293 141.501 18.344C141.971 17.4587 142.616 16.7867 143.437 16.328C144.269 15.8693 145.224 15.64 146.301 15.64C146.867 15.64 147.405 15.6987 147.917 15.816C148.44 15.9333 148.883 16.1147 149.245 16.36L148.477 17.928C148.168 17.7253 147.832 17.5867 147.469 17.512C147.117 17.4267 146.744 17.384 146.349 17.384C145.293 17.384 144.456 17.7093 143.837 18.36C143.219 19.0107 142.909 19.9707 142.909 21.24C142.909 21.4427 142.915 21.6827 142.925 21.96C142.936 22.2267 142.973 22.4987 143.037 22.776L142.397 22.072C142.589 21.6347 142.851 21.272 143.181 20.984C143.523 20.6853 143.923 20.4613 144.381 20.312C144.851 20.1627 145.357 20.088 145.901 20.088C146.637 20.088 147.293 20.232 147.869 20.52C148.445 20.7973 148.904 21.1973 149.245 21.72C149.587 22.232 149.757 22.8347 149.757 23.528C149.757 24.264 149.576 24.904 149.213 25.448C148.851 25.992 148.36 26.4133 147.741 26.712C147.123 27.0107 146.429 27.16 145.661 27.16ZM145.549 25.528C145.976 25.528 146.355 25.4533 146.685 25.304C147.016 25.144 147.272 24.92 147.453 24.632C147.645 24.344 147.741 24.008 147.741 23.624C147.741 23.0373 147.539 22.5733 147.133 22.232C146.728 21.8907 146.184 21.72 145.501 21.72C145.053 21.72 144.659 21.8053 144.317 21.976C143.987 22.136 143.72 22.36 143.517 22.648C143.325 22.936 143.229 23.2667 143.229 23.64C143.229 23.9813 143.32 24.296 143.501 24.584C143.683 24.872 143.944 25.1013 144.285 25.272C144.637 25.4427 145.059 25.528 145.549 25.528ZM155.123 27V25.608L159.571 21.384C159.944 21.032 160.221 20.7227 160.403 20.456C160.584 20.1893 160.701 19.944 160.755 19.72C160.819 19.4853 160.851 19.2667 160.851 19.064C160.851 18.552 160.675 18.1573 160.323 17.88C159.971 17.592 159.453 17.448 158.771 17.448C158.227 17.448 157.731 17.544 157.283 17.736C156.845 17.928 156.467 18.2213 156.147 18.616L154.691 17.496C155.128 16.9093 155.715 16.456 156.451 16.136C157.197 15.8053 158.029 15.64 158.947 15.64C159.757 15.64 160.461 15.7733 161.059 16.04C161.667 16.296 162.131 16.664 162.451 17.144C162.781 17.624 162.947 18.1947 162.947 18.856C162.947 19.2187 162.899 19.5813 162.803 19.944C162.707 20.296 162.525 20.6693 162.259 21.064C161.992 21.4587 161.603 21.9013 161.091 22.392L157.267 26.024L156.835 25.24H163.378V27H155.123ZM168.099 27.16C167.31 27.16 166.536 27.048 165.779 26.824C165.032 26.5893 164.403 26.2693 163.891 25.864L164.787 24.248C165.192 24.5787 165.683 24.8453 166.259 25.048C166.835 25.2507 167.438 25.352 168.067 25.352C168.814 25.352 169.395 25.2027 169.811 24.904C170.227 24.5947 170.435 24.1787 170.435 23.656C170.435 23.144 170.243 22.7387 169.859 22.44C169.475 22.1413 168.856 21.992 168.003 21.992H166.979V20.568L170.179 16.76L170.451 17.544H164.435V15.8H172.067V17.192L168.867 21L167.779 20.36H168.403C169.779 20.36 170.808 20.6693 171.491 21.288C172.184 21.896 172.531 22.68 172.531 23.64C172.531 24.2693 172.371 24.8507 172.051 25.384C171.731 25.9173 171.24 26.3493 170.579 26.68C169.928 27 169.102 27.16 168.099 27.16Z" fill="#28326D"/>
</g>
<defs>
<clipPath id="clip0_407_10149">
<rect width="192" height="40" fill="white"/>
</clipPath>
</defs>
</svg>
